<mxfile host="app.diagrams.net" modified="2021-10-25T02:30:02.534Z" agent="5.0 (Windows NT 10.0; Win64; x64) AppleWebKit/537.36 (KHTML, like Gecko) Chrome/95.0.4638.54 Safari/537.36" etag="K4MXeu3PY8-lUFXxzgCy" version="15.5.9" type="github">
  <diagram id="KtIKpfkJ0ymf6gtc7nJ8" name="Page-1">
    <mxGraphModel dx="1422" dy="802" grid="1" gridSize="10" guides="1" tooltips="1" connect="1" arrows="1" fold="1" page="1" pageScale="1" pageWidth="850" pageHeight="1100" math="0" shadow="0">
      <root>
        <mxCell id="0" />
        <mxCell id="1" parent="0" />
        <mxCell id="WB0BFBL55_z6dredpq6V-4" style="edgeStyle=orthogonalEdgeStyle;rounded=0;orthogonalLoop=1;jettySize=auto;html=1;entryX=0;entryY=0.5;entryDx=0;entryDy=0;entryPerimeter=0;" parent="1" source="WB0BFBL55_z6dredpq6V-2" target="WB0BFBL55_z6dredpq6V-3" edge="1">
          <mxGeometry relative="1" as="geometry" />
        </mxCell>
        <mxCell id="WB0BFBL55_z6dredpq6V-2" value="" style="shape=image;verticalLabelPosition=bottom;labelBackgroundColor=#ffffff;verticalAlign=top;aspect=fixed;imageAspect=0;image=data:image/png,iVBORw0KGgoAAAANSUhEUgAAAi0AAAGtCAYAAADasUQ3AAAgAElEQVR4Ae2dwWskR76g359S/0QdGx/WvMP40rosFj4I5iDoQy8DolkwPfDQeBmED73CjBHudbcXZoVhQM0DedwescxDl0Zqj5888Ggb2uqh14I1Vs/Yq0NDXX7LLzMjMyIyMiszK1VVkfUdRJWysjIjI76I+OIXkVn/NJlMhD/yAAZgAAZgAAZgYNkZ+KdlTyDpoxLBAAzAAAzAAAwoA0gLkSYibTAAAzAAAzAQBQNIC6BGASqjLEZZMAADMAADSAvSgrTAAAzAAAzAQBQMIC2AGgWojLAYYcEADMAADCAtSAvSAgMwAAMwAANRMIC0AGoUoDLCYoQFAzAAAzCAtCAtSAsMwAAMwAAMRMEA0gKoUYDKCIsRFgwMg4GTeyMZjczfphy8TK/r6nRXNv7rgZy/HsZ1wuv1lCPSEoG0uJV8JJuPLhCNpSm3E9l9Y03W37kj2x/uyf6fL+SqIm0XjzaDjTWN2/U0buRrmq+Xj+/KjZvrcue9Pdn/7Fie/ZDl9+WR3LXZPb2cS7vitmeptFw+2ZW1TGTGb+/KySVMwG+YAaTF7mBOd61OxYwEvNd7J1nFPpHdfLTg7WNt70Mw3Eoej7T46S5GV9X55e4zlo2PziolYCkq9fN9WbfKe/zBmbhyMpLd07TyuduLEeZSXIddD3g/l857PuV+Jcfv2fVtXfafZ53B6a6MLXb7aKuaXJPbLmg9uJKTe2tu23vzrhy9CHdaTc7BPsPNO6TFbqCRll4ba7dxshvONu/Hsv7RWfd0vb6UZ6eHsv/+Xdl8Z13eHNvnviFr75gR6Jmc/9S+ol/8622nsd3+8xXSYtcp3ndnt4+8++FQ7lhiMtrYl/PsuGcfvWWxa8lMH+etOYbbLhh5P5eDX42t9Ixk9MYdOcymjpCQ9m3TUPNsJmm5fH4k++/dkfW337SMfSxvvq0dwb4cfdM83HhxeiB7727K+s0bFrjaqWzK3Q8P5OTlVW3lD1eE6yxoN9JiRtOTibu9cvTy8kA27cbkWt7vyklN43HdULtlYstC+n78z+uy/k725zBU7Ns5VHz5TA7v3fYkpTiuG9Ex28fy5u09OXrelNtLOXrXfFdft+X4atJOWl5fyeWLMzl69FC2t9blzTfWZee4+vyrXed6qs+vL+Tss/0kv9feKMpPedx8d08OTqun+Pw6M2t5uNG3Ii0hPpP6cuuu7Hx6JOcNp0/OP92w2tOR3PnMsHUme7+wzveLPTmbU1vhtgtGWrRsXXEZ/+ogFyw/3/m/p7owpzLvs7y6SctPz+Tg1144r6LTvXHroZzVjWB/OJHdX3qGHTzWWNb/5agS4uqK0LBwm0RZsnQlgqLzwVY6kZaG+RyqJBfHAQbGsv7+kVy0XpR3Kc8ebcu6E1GxGmerzEIdQ7pNz30sl6G02tuujmXbPt57x8lUlt8RGTbc7WN586Yt+1Ya8ylIK0+HWOfsvJzT+/PPmrExfntbDuumJ3oqD5cJiwGbq9D78YbsfV0/kJtMfDHZlZOrjKmv9+St0HEbbbNFQ493IQe3WqS90TmK45n602fHx7GstmVOda+vPO8gLRdy6IfxpkBYacxXZ7J7s4CzuhMp9lm7dxJc4zB3aXlhR0puy+GFgSAQadGoSrLgbV02f/8sjRh5kZbeKqYjX4uNtEyHVAXjbr4ALy//NzZl74kZEZp8bfD6+lwOtuxIXcbNGxty98M92X6n4Gg00ry5ksuLZ3L8aFdu/3NZnMe/3KsVbl3gmKd5NJad47QT8TuiOx8dyEONSAbOUXzfSltJWgZa5+baWF7JyQfrVkTYyu+q9mt8Ww6C4tJfefisBHmoTN+2HNcMCJXPqjUrZx/aU0MN8sJJA9IyvW1r0F7Nlf/hpKe1tFwd7zgVoWklC02T+KHLZsd6S3ZPyyOMmaWlJUCXn90pOqx3inni4PSQLSimQ7K3jYrFmjNXhkik5eJ0X7bf9kVBo2kH8qxh6NvNKze0nLA0Xpedz86ziIk/GvSFLixQlcI9uZTDLaux1/B6NtVz+P56wYbT2Fv759t1OnVNbuT/j2RkGMmYpM7N3uCeP7rdqd0a3dyVMxOduIbymElaRiPZ+PS8Ytr8TPbsAeFNa/rn6lh2ZopEIi1u2zM7nxyveR62lpazD9yOZu3X+3Ly4tKKfugc/Yk89Ee8tw7kwhEDHa3YjfhYNj44kmcXlpC8vpKLbw5lx+vcxl6jrgU+X2k5l/2NIu1uwxGItNh3mJi0l6TF71SL4zeTuZGMNI+XXFou/+NQdm+VoyEajj/4jw7RlYSp8t0H47d35Njc2pns45ZLklcOj2ml0WdFmFsv03wfy93HgXQ935cNSzSUgfPft5GVddl7ciFXyfSXlzbDSJY+6lzzBi3Y+Ht1LRXaDdl5dOIsvr56cSL7/1KOxhTrQNJ09Fce1eufQtdx9eJIdmwRUf5+dei1q2kafRl681axPsT/LLk+p91oe4ei33b5AwK3/PzzB+tXoG6G8oRtbt6uQn60lpbGcnB1Irv2Qq8kHG9ncAvQ/UanJEA9SYtXcUOysPlIOydrcdv4rhw5naN/Xa585BEn75p2T+u/F0pLaduySsvrKzk/PQjKyuiNTdn97Nn09SM1jdjVn7fdUfTNXTnxw+beGqTRu0eV53TKVzuGwCLFcnh9V06e7AQjLGtbO7L/2Ykcf1z1nJZ6aRl0nasp174a4FJZ3fSF1m6XygJs33GjaeqvPNpJS5IfPmPj3fIC2p+OZbsUSTEiUbHOxWv78naqUfn4bZc5l52v1nvvGtxzXcjB1lpyI8fh180XRPfFCsexyqlR2c9//9bS4t4mN5Ik0jLlzp4wCP6dF1mkxRGA5hnSuCGpKwiv4pakYDSSzT+cyfH7ZjQ2ltuPAuHZF0eyfcsL+Y/flI33qhcS97KYLSBz4bxvnq+dvv/TpVx8cyKHn+7I3V9WLDZNohTaOKW3Iud3ESV3E3l5Z0U00rUodvq9Rni0UTyHwi5rO9o1Gok+T6Xy2vwFtqO3ZO9r65z+baRJ+nbl5OWB3Lm5Kbd/6a4XMOuV3BGmHWKvl5ZB1zm7jK7lvc/HWPS29Mqy1zTo9EnyMLaHcnD8TC48Ae6vPHqQls0igpJe05WcvO/yl7ZjqUi4DFoRlQZtn30cN/9aSou3CNipi95gbnTzoTy7Fi6s+szx6+vDkuVPa2mZfL3nhc/TSILejnfnvYdycHQm55dTGoUsE/yFYkYSbtzclLvv78vhabnBcCtLAV4v0tKicM4f3ZGND8KLgqvS2HV7ZUPTIr1dz932e35aTZn29+qO4vz1Hm99GJYRd9HsSG7/a91ThX2hthr3ycSNtOVCVaTLz4NZpYU6V9TztjxOnAXz2lalt6W3Po5d13psA6tYKaXv6lIuvj6Qu9700Pi36R1rZv+rr/zpTRPp1eijF4Gx17n0Ki3mnKHXXTm5OJTbeb0ZySi7606vwc+Pt2Z5RpNdZryPSkwMz6HX9tIyCYRPbQCz9+N/3pC7Hx8Vj4wOQhNYPBk41o2bd2T30YlceAvi7Auaq7Q0ruBepfXWKtjpr3vvV2Q3nDpDgx4skxmP54V++5MVk5eFHGiendyz11hVPyDL3c+LnATywR9N56PBH47kbin0rmkr0uWX18zSQp3r3uD6dbWXaGR/baDPSrv6suZGAH86qbkbc1t2P7AfU+FFnPx8CrTDadoKzos2y4+0mLoaetXve5HFPFrkrhUcVUVNA/W1SMuM7RfH7l7X5pR3HaRFobiSZ5/ece94qIT8hmx+eFK5fmAyubSmW0KQW9vG67L96Jm16LcAtBdpaVBxE2FosF+w8amTFj8sau3rN2xLLS06DTN+M3toXPp7PHv6mzyfHcvxsf49dJ/QORrJja397ncMbdp8BOb3k4rkTxHsTH3onp/n6R092lmFQu+ahqIx9787u7QMuM5dd0Pn19VepKW/8vBZCbYbwbZ1LOtOpNefFnpL3nLWFO7I4elD2cwepje2ohtJh+/lU7s2poW0JGtw/JswsvroLW4fbR3W9BtF24+wrFZedJSWLJMuz+Xo02254zzF1upErMpW9XyVHLiLEzn48K5sTH2WRXgdSQzSUjslMRRpmdIJ+Y109S3FTSqiN2Kr6pC8OXQ7HJ3z56Xbj7QkYer/eBicGvVHoP41TpWWn9wHFfq3PDtpHFqd8/LdudY+PvM646q7xjqfd8by8FlpIi3jf74te8fl6c3LP+/kfGp7e+T8mnIm1ZdnsrcVWKju5dNs0lIIvOar0zZnddStX5ty8OJKjn9rR02nR0M7l1kfXHGMhUVkZpMWu+B+uih+4yUoMc0hvLo8l7Ojugdy3ZFDb8GuUzFG9iLHJp1fl3280UVgVOBWzCnX70mLPZfbpWFr1+ik1+/moSefVUJgMzD1vR/+LZdju4aoibT4jeEofAuzk3b/R+bMGhgrKnhzT/bet/OoaKj98qqUllP7AYXFsfKpKCdNAUYHXud64dHrjEf5VEQgP6fl97TPO5SHz0qttPynbTl6Ub9e8OrrPbnzQRrZdvOv4DNYx7x8atd+nMmuPWXq3W3npCNrR/SOP/tat3+/7/6sSS/tzTWU8TQG+PzaZaY/afEL64ez0qP+GzfG3rGuXpYf8+5HLZyK0UlaPAmxokR25bJHwc4D5kbeQ+/8Bzh5FbnUcNQ0Gq0atizd7RqdOUlLi9uOS/njMZF+fi77zlNuA9M+fsh5vJP8PlDt8f2yc+4eupJnv99OHnDoMld0Cn55VUrLS0+6krJbk92v6jumyrRHV+fqOxU3fwupS+pj007Nu2us2ULcSzn89Zpsvqu3qje/saBULg3Ko4oVnYK/DDyjSn9EMPyU3nJeuvlX8FlKp9Ytr/1x2jynLQwNCE9kx97HKRtvUbv5zG8L7O/7bWmw7pevN3hdfPfaJWLe+d5KWvw7MNyHqgUg8m8dNcBOJuJGIYpHoFdmgN/4WGs+9DtuBQ1VrED6HKDbS0vy2x72an7r+SBnH9mL3ty7T0LX6OftzpMivX7DVt2gFA37UkqLF02yBTCUJ9O3eQ2iIxeaf+WF3msN7kY4/4P9PJXwc1rKzBWdgl9e1dJyLgfWmhxdcO7/fIHPxbDqXMF4qKzdOl2w3UpadNGnHQUYeQtQnTYgS48vutYdR32Wh15zFSt5foQW11b+vICbn27+FXzmx7avfRZp8e7QcgenXrua9wHedktaxskzlE5kV39QdWtb9j6tWxPpXnPw2uzr5H30EtNKWia+OPxip/wQLxsKfy2B9fRGPzyoc83mJ9ND4LlRjfJzNtwK2oO0WFLkHNvarun0n6A6/tW+nBx5tx3atxba+WO9d+9uGYm9Bshv2LoISShP/W3OdVqNSLtOoqYR8aXl/ZOZK1CJC/1lWH3K7NV5Mlp2BG9c/1stSXl+sy+3nU6uWjjd/Co6Bb+8qqXFzStlQH8hXRvq/dPsKbyDrnPu9V8Xj37dGv1i23sgpJ2Osug6txX3WB56vVWsOHnx4qDE5KhRm2KLXsGnc2zTBs0gLX5b7j7h1hVz+6GOft1N6ur4thy+nMjEuS16StrNNfA6c3saZGPJ8rWdtEz8NQkjGd28Iw+PnsmlfTuyzu0e7cqG1/jb6zSSBzh5n49/uSMHp+fZo83ThkTXt5x8Wv5RPbdiXEOkxZITp3OytpsCrv9dkwbh/tJ0hDY2Y9n46CxZPe83bNclLeZ6ru/VCyM3kIipafGfPeHLVv5/xeP4rQp5cbRT/nXoDft3pezOzWeuaFj98mouLUUnU5TxkOucm59Ty9oqq1b7liInIxmNN2TnszPrwXE6HXMU+LVxfy1aj+XRVFoCgyPt4Nc+OAveSWnyxmm3rLvbzOfOqyctBX/Ty8iNmvuPHXDrvBOFeeH+FIZe0+Yfsod12gOcaVPrXbnge1FKTktpmYiGR+1fDnVGsnkHUTS+xeflJ5X6UyjFvqHvW9sC6xLcCmrtW5sm+8fpvHClJSfOsa3teaV/fSEH/zV8zo3/mf2qc00FKT023krzjVt7su/9AF+bBiVPY83557ePP50zkuSXlDv9QGLRmNZLY1ouduTKvd4rSX68caP8e0i6fuAw+Cu/6bkdLqxOoUpa3PMW6U+3u7eB2mU83Drn58H1/d+EkVD7k05VuOnqszyasxJ6Noz3nBavjlfxGeSws7R4jxNwfjx2IpdH7k9sFIPNckQryX8zSLAjWvmUklsOwevw8oB9hpdnraVFHzd/6P8YotXJhiq+Rg3WPw48qfTqTPa8H0MMf98Wghty96j8A3ZuBbX3n/I+l5AW0pL9mu/xZ/uyvbUub3oRI/8abmzclb1Hx+EH7XnzwaONHdmdkr+bv38ml5eXTkQqlsqp02lv+byM35Tb72VPQNbrat3wXMrxb901REUZpM+zuDTH/OlSLl+ciZbdzrsblWVX/sHFcuV3mauOtGx+ej79mn44lh3ruRq2tAy3zpXz9Po4vpKTD8zPb0xpEwyf1ho1N139tYHNpWUik9D6lpppoio+3WvJyqCrtHhLADY+fSbH71Xlrxm4hgSs+I4OMC7th1QiLVFGRIKcmXZ4htcO0qKQW7d+mgpe+XpD7nwafiBcclE/PZP9KZ103gGN12Xnz2Vh0eO4FbSoAPl3q9JXJS2V+x97zxPwzvXGhmzUiNjGx1bk5cWR91huU6kv5ezjzYYP7/PO76Xb7fzm2UlUnau+waosr7ycqo/77LPd4plB+ltP7+7Jof3L0fbozcun4rz6MMRjuUh+fbnqXOl2l7lCWiZf7XaMRhZlWYxITRqGWOfMtc3v9fyz7fIUYICF5IGH3m8OuY1wP+XRSloqpok2fh/4/bNSm2jxGeowOkmLRk7tZ6ukjzCo+rXzNNp5JWcfbTj1Y+23e+Vfr7bLpObHTd0ymR9HnHdxed1RWrIE6wPhPt6WO+94P3D3xpqs30qjC+cNQ/+Xz49k//27svm2+wN7+ptGycJEnX+u6UjcDqRo/IvOqGJb3hl6kRa70tjvdX9vdKHn0Ac+7X52JpdZGoNTDtbI7fKJv+bnhtz5V6/xuTiWh+9uzCAv/nz84kBzK3mbJyqn5bZe0TC7x512ff4t0gUT5mcnmvKq53WZszuFitC3zVHd+5u7cmavEbM7mUHVuWnldU2fX13IyaM9uXtrXdayJ8RqHb6R/Ejivhx9Ex4YBVmbsTzaSoveCn3mPI5fGTaDHTe/qvl090uuq4O0XD3ZcaKm5s48/w6rtG3UgeulF+2yoqChxcZZHXHWwdh1gfcrGYGZTVoGBY0nLbnMBCp4siD5hqzduis7nx7KWc0Dn65ensnhx/qk33Xn+Rvnf7hdjDZqIkhJg/L6KvnV5KNHD2XvQ5XE9eQx+XaDG5azHn4c7jrLuIWU9RUxSkaBKtXv6I9y6s8LnMizH7o9F6W2U3h9Icf6tOipv1qtnc4NWUv2uyPbnzaL8gQ70OssK44dXQdRy6dfnl2k5RvrBxybLKp/fiB3ckksR+D1wXj+zRu6tGDnuFv9pI6E+q74tyEtfuWd4//nj+/Kxq09Ob6IH6SZGoiry/Rpyh/uJKPf9cATlfuSlpnSOUc2SOeK14lYWHt9IUfv304ettiI2csT2f3lbXn4VUU06+JY9rayyL2udfu4/g6pRueMJS9JZ6OBAdICKI1AoXGgE4UBGIABGFg0A0gL0oK0wAAMwAAMwEAUDCAtgBoFqIu2e87PCBMGYAAGFs8A0oK0IC0wAAMwAAMwEAUDSAugRgEqI5zFj3AoA8oABmBg0QwgLUgL0gIDMAADMAADUTCAtABqFKAu2u45PyNMGIABGFg8A0gL0oK0wAAMwAAMwEAUDCAtgBoFqIxwFj/CoQwoAxiAgUUzgLQgLUgLDMAADMAADETBANICqFGAumi75/yMMGEABmBg8QwgLUgL0gIDMAADMAADUTCAtABqFKAywln8CIcyoAxgAAYWzQDSgrQgLTAAAzAAAzAQBQNIC6BGAeqi7Z7zM8KEARiAgcUzgLQgLUgLDMAADMAADETBANICqFGAyghn8SMcyoAygAEYWDQDSAvSgrTAAAzAAAzAQBQMIC2AGgWoi7Z7zs8IEwZgAAYWzwDSgrQgLTAAAzAAAzAQBQNIC6BGASojnMWPcCgDygAGYGDRDCAtSAvSAgMwAAMwAANRMIC0AGoUoC7a7jk/I0wYgAEYWDwDSAvSgrTAAAzAAAzAQBQMIC2AGgWojHAWP8KhDCgDGICBRTOAtCAtSAsMwAAMwAAMRMEA0gKoUYC6aLvn/IwwYQAGYGDxDCAtSAvSAgMwAAMwAANRMIC0AGoUoDLCWfwIhzKgDGAABhbNANKCtCAtMAADMAADMBAFA0gLoEYB6qLtnvMzwoQBGICBxTOAtCAtSAsMVDJw+fWB7N7ekN0nV5X70JAvviGnDCiDVWEAaaHDojOCgZSBH07k4bsbsvHBmVyZPPl6T9ZGIxn9YkdOfqrpGF4eyKbuNxrJ7mnNfua4zuuJ7Gbf3Xx00ROPF3JwK03P6N5JT8dse10R7G+VG/kUQXk59WY104u0AEGUDfrJvaxD6tRJamUvOsrRaFdO4EAmP53Izi80X9dk9ysTWbmSk3tvJTKy9tFZNStW5xeXtNgcFEypfNX9Nb5GK1/qjpd/Nm/BstM373NT56rrE3lTmTdIC3BUwrHM4UakpWqUdSI7psNt0AldPNrMO2ftiC8f35Wxfn9jX85N3fjhSO6OtRPflIOXFee1Oj+/Q7fPkXfOJo0dXptFY5pGWpAWEyEj0lLBtqkHvC5FX4G0AOJSgNhWkJCWigbWkocmnZAtFKlsnMv+hgrKWO4+vszZOPtoQzbefSjHL00Exju/dd75S0sH8bh1IBdJ3be+O03yaq6xLb/u/i3S0Hd7ZV1TE17cdHsM9J02jpfXP/K9YA1poWJEWTGQlqISOw1a207oyY4TadFjXR3vyNrtXTn4qpAW5xyhOmOdV6Xl4nhX7txcl72vK9LpHKPotJtFUfxjFt9vHMlBWtJ6b5Ub0uJzxf9T671Tj+eTX0jLAjJ9GUGILU1IS0UD8aJYELv++/PpQnq6W5KWTixYnV8SaTndTaaZGqXBWl/UTVpCedFheohIy3ReaC/JowUzgLQsuAA6dRCkWZCWUEc9kYklIY0EwJIcezpoKpeJpIzlzbcfypny6EvL1bFs63qVLKJhT0M1joYE1rs0uqakfkQqLb86zKatKsq377pvlRuRljnled9luGLHQ1pWrMCndkaR5AfSUtHAWtM9O08q9rHL+PJI7mZy0FwIbEnJ7ryyOr90TculHL2ra2PuytHlRIYgLZfHO/JWllf+up2Z6pVVBkbyZjpeUr4dpswCkthMMLn7bvbyalBX7Xq7wu+RlhUu/KWvaFZH2KzxrL9Ntf0xau6WWVJuCjl4q/V6kvEHNbc0+9drIjTvZHcZWWVlOvSLR3dk4909Oa664yg/ZtHBthKn5PtWRKVlp5ueqzi3H2k4//16PnXmsrMh+8977GRMXmr6x7tp5CrPm67nsa6rZb6419qkTiEtS9+WzsxTVw77/x7SMqDCHFzFsTrC9g1pk8Z22j7xScvZB+Oso70thxdNGgyr03/3SC6b1gczDWUWtFplZaSlOY9FB7tM0nL15+2StNzYuCv7bRYoN8lPKzpmIlPN865JGdfsY5WbL231abC44TlHrHNpwnlP+yAtPWVkfQWvaTQ4f6cKz/RQiKkLOfxVJmItRuwn72ff+cVe41F+3qG/nz1t1ur8XGkphKQ/8QzJ5Lnsv5Nex/afw7dln32UPiRvtHVoyZmVvmkLca+prroRnaYRslD5d9hmldtbdQ8PLF070kKb34G3Ekftj4G09JCJwNsevFnzDGkJ5fmZ7CYPgRvJqEXU5PwP5gFz6fqTJmVjvpN3dFbntxhpmYiRkjxNTt0+l4PNVGrcaM6ipcWs/cnEcTSSzT80uOvLubYQCw23WeXm5su07yMtTeoJ+0zjqP3nSEtflZ/jdIqYdK3USEugsltrI5rdapwdI5+eGMvuV4HjBtg2+X/7X7PfCrI6P1damh2vKwf29/Loj1lnY6c7X+y67q1HWbC0mLus7HUnZsrNTv91vTfTfK1/DgNpsdnj/fzqOdJyXY0Bx71WiTGdpk45dOskrc5qIHPy+gj+dApm3C5PLg7ldtZpNpMdE7WwJGcJpGWSi0l5PU+10NgcFNGOJlNZ7SIT4UY9T9doLNvvmfILTX+Fvz9rZ2kiZslPNLxocw6kZda85/tteCv2RVqQi2uVi+uqmEhLUYnTPL6S4/dMp7stx1f+53X/n8le8kOJDaeV8uiAJQfTpMUa0TcRgvA+0zpzI1Mj8de1mAXK5amj7tLS6Jby2vblUg63sjIb78rJT9mzbUYj2fh0HlNE1tRUi/VMKW9Iy3W1bRy3rq2aCNJS26jUZx5wLS5/epWW0HRCkIvuHVy4EzaSEX5tFUH64VDumCmGFutZDMMn98xdRw2E5+JYdrfWZW3T+lHFpZCWYl2Le/u2WaQbikBZZZosxDWdsRVFslnIr7Pic3vfae+f78tGVmZvfai3m1/J8W+zcmgtER3qYi6fIxn/9liupqXX+dzkk7LLLc+mHvHagUOHq+nfR1paZhhQTodqHnk0s7RYDXbzB3pZHZwRhGt8bSMt559u5LfntnqybcZ/MU1RjlI0Ks+8M6+YrssjLdOiJWW+imfPBL5rnbetGKbTO1aZZncPmahMcPrn673sAXPNFy2H8+9KTu5ldzONrOe+fL0nawlT7g9Who9Rzqs2+11+diefTtw5Dt9xVX08S1rmuQaH9jrKyHg1R+0ZRlqoBFFWgpmlJe98RuKOyttXoj4rZLdjWdM7452WU0PZ9doS917bUbf9hNz4pSUXuEDEKheoxtG5Cp4s2Q5WneUAACAASURBVBo759EpGxNt2ZWTVtN8FecKtnHm17z1gXZdmEFautXVNmXEvqE8RlqCFRpYQrAs07ZZpcV+NkaXyMQy5YV2smNnmqELv9bUxOiOHP7Q8hhWJxyMEOWRlvBUWLMoSSDSUll/rU619vkr5UhLsaDXz4diDUp5bUyb/LLExI6ymGuxpo02mvzopflei9er0938JwnSqak26dd9rdvr5/17SS2uc5nqKWlpy1h4f6SFChBlpGW2BsCKTGS/jTPb8cKVaz7HtEbMXWTD5j/7ZWYViNYLQYckLdbaEkca8nVDsz0A7upJ8RtGb907CawlqZg6sstqpvd9MBOQvZnStMg6xLnn01b1k89ICxVt5aRFbw02kYn2CxD7qXh9NRL2tay1eqJp6DqszqztlEFjaWkTLUnTmE/JjNp8d4ZIi7YJZvpwfFeOsqjT2YfZGpQNawFy2/ZD7xAyDwC8qXcMhcphIpOfTmTH3NF1c1fOepwmKm5zHklnZvLby0fS7Db5iutsm3/sv3Lttd9WIi1UgtWqBC8P5bbpNFp1gkvY6Nod23hbjqs6wBaM2xLkRBmmHWNo0jIppnDeev9ErvLrG0v7RauGnXM5+JW5S2tNdk/rF7/qFE66KHcka8GIjDlu81f7mKNZZOj5vqxnU5KxT6/6nSL/N+dpEXmFtExrjPl8OFLz05ns/dJ0GmO5/Wgez8K4rgZApxDW8rs/+us4zmTvZrbuZHxbDqf+QnN2fXmnPueFuBNrmqLVnVzmNl3r+/7al/wJw2O58UbKzbjz+o1LOf5tUV7N2LuSsw+s78z6eP8XB5awr8nuV/XSVNch5YuVR7NNldWdg8+uq+2I+7hIC1IyHCmpK8vLE9l92whLfyPXRTWs9roI9+6T2Rske2Fv42M3lpa+F+Ja0tG3tEwmcv7odj6VOBrfloNWT401ZeEKy/oHoXUsZl//1Y7OzCDaL47krpHR0QzHyeqY+Z2n0ajBc33q6iWfrUb722M5Iy09ZuaiOjDO6zf09v+X8uzRtqznU0JjWX//2PqVX3vfSN7bI+a6dRGd2dZfizaC17CDW5i0VJXZjGtasrxzplN+cVcO20rLT89kf+tGHhFrJyzZtekx8vK4IXf+tV2E8PKrPdmw+L89a8Rm8kweZr+o3eaHOWmnqlhlexs2kJbODTugtQFt3vte/fBMjj6+KxtvWCP78brsHGU/8Bdrub84lDvmmjqP/Buwm0+NaP5NX38xaSwtbRbTpulcyELcyUSuvtm3plMyjt640zza8uLQim7ckDufPgvcKdSgLJTVn+xI4Vhu/77BsV5fyNH760WkaLQmdx+3E55QvbWjT3c+uyRSEGtbEmm6kZZICy7UmKzitqvLS7m8PJez42M5/HRPdt7dlDXTqZvpgvGbcvvDY7no8Q6MheS1E+JvIBIzsm13TlOnRgYmLXZ0Yu3XR3Ku04tmemW8IXtf1XXWl/Ls0ztyw/D3xqY8rN2/qbjYa7JGsvbrQzl/Hfju6ws5+XTbFfabd+Xgm+5rWBLery7l7NHdfHHwqKfF3wupSzPWDdIc4G5OeYq0zCmjgbxfyIvfyrEiKaaT0Nfxm7K+tS37R8/kMtSwR1juZx+aRZlrsvPnuk6zr7zWH2HMpom0o/66ptO7Nmm5lOP3zePurR9onFp+XaeHXOFIhMWcy1kXdUM2Pz4rTTNenO7LtrV26sbWvjy77Ks8JjJ5fS6HvzYcjGT89nZ5yir/KQCtGzdkU4W9TR1o8iDAaTyYPOOVSFTPDCAtPWcoctJjA11TNvndC2+syfo764mg7H34UA6OTuTZxWX3MHzNORdftldy8sFt2X0yD2HJyvH1uRz8y7YcTVvL0ae0VHWaNx/Ks8bl001aimeYjGXjo7KUTLw1Knc+K6YbLx/fKaZi3tiUvePis37ZuZSzjzbyc43f3pMzT0r08817h3LW9snGmr8Xh3LbHgBY72/c3JS7Hx72K2KNy3Q+bUu/ZUWa+85PpIUKw0gABmZnoE9pcdbTaLRgLG/e3pOTVh1wN2nRx9M/vL0tB/9RJ4ZpNOZOaV3JuRxsbcj2o2elCEzfDbce7/LJrmxqJKeH5/NcR/o4JsJyHQwgLXRYs3dY5CF5CAMwAAMwMAcGkJY5ZPJ12CbHZBQDAzAAAzCwagwgLUgLowMYgAEYgAEYiIIBpAVQowB11UYTXC8jaBiAARgoM4C0IC1ICwzAAAzAAAxEwQDSAqhRgMqIozziIE/IExiAgVVjAGlBWpAWGIABGIABGIiCgaWSlufPnwt/5AEMwAAMwAAMDIuBviJCSyUtfV0UxyFkCgMwAAMwAAPDYwBpISQYRUiQxmd4jQ9lSpnCAAy0ZQBpQVqQFhiAARiAARiIggGkBVCjALWtjbM/IzgYgAEYGB4DSAvSgrTAAAzAAAzAQBQMIC2AGgWojJiGN2KiTClTGICBtgwgLUgL0gIDMAADMAADUTCAtABqFKC2tXH2ZwQHAzAAA8NjAGlBWpAWGIABGIABGIiCAaQFUKMAlRHT8EZMlCllCgMw0JYBpAVpQVpgAAZgAAZgIAoGkBZAjQLUtjbO/ozgYAAGYGB4DCAtSAvSAgMwAAMwAANRMIC0AGoUoDJiGt6IiTKlTGEABtoygLQgLUgLDMAADMAADETBANICqFGA2tbG2Z8RHAzAAAwMjwGkBWlBWmAABmAABmAgCgaQFkCNAlRGTMMbMVGmlCkMwEBbBpAWpAVpgQEYgAEYgIEoGEBaADUKUNvaOPszgoMBGICB4TEQnbT8/e9/l7/+9a9yfHws//Zv/8YfeQADMAADAQa0jdS2UttMOu/hdd6rWqZRSYtWPq2IL1++lNevX1MRiRLBAAzAQAUD2kZqW6ltJuKCtAxFcqKSFh01aCUcSuZzHTQkMAAD182Atpnadl73eTg+LM+DgaikRUcMRFioGPOoGJwDzobCgLaZ2nYO5Xq4jtWum1FJi65hAdjVBpbyp/xhoD0DtJ3t8wzOljPPkJaK+WCAXU5gKRfKBQbaM4C0tM8zOFvOPENakBaiVzAAAwNnAGlZzg4YMWpfLkjLwBsrKkX7SkGekWdDYwBpgemhMI20IC2MsmEABgbOANKCtCAtC6jkVDwq3lAqHtcBy/NkgLYT3ubJ23Wei0jLAuTrOguUY9M4wQAM+AwgLTDhMxHr/0gL0sLUAAzAwMAZQFqQllglxU830jLwxsovcP6n8YKB1WMAaVm9Mh9qPUdakBZG2TAAAwNnAGlBWoYiMUjLwBuroYDKddDowkB3BpCW7nkHd8uVd0gL0sIoGwZgYOAMIC3L1fEiQt3LA2kZeGNF5eheOcg78m4oDCAtsDwUlpEWpIVRNgzAwMAZQFqQFqRlAZWcikfFG0rF4zpgeZ4M0HbC2zx5u85zEWlZgHzVFejzz7fkwdNXMvnusWx9ciqvFpC+V08fyNbWlmx9/pwR+ALyv44PPqPz6cIA0gI3XbhZxu8gLYvqlFRKth7Lc//8P57Kg2T7Kzn9ZEsef9dzZUuOv5WeO0mDvvf/snT9+KqQJt03kRgrXXqsT07luZGc0nEQn2Ws9KSp5zrl1+El/B9pWb0yH2o9R1pMA5N1wK8mz+Xx1gM5/dGHXLdnURDznc6vacdfFcnQaEsiK7ko+Glp+b8nJ2ERsmQkeF16/SozxX4akUmiQvn+xWdDrTBcV0v2cjb43iLZQVrgb5H89XlupMVqVI0sJNMjwamRTDZmlRdPIsqRDo18hMRp1opnS0VxLeHzp9GXsuDYxzDpSYWufJzruAZzTl77bAg41rB5QlqGXb6rVH9XUlpUTtIO1utUVSaSdSQmqlAFuumkve9bAlQNUfbdoBRl50ukJjB11Oj4VWnW7SHhMPvXfWau1+Sb+/r4u/RzV3B0W5f8MenhtZoh8oa8accA0tIuv+BrefNr5aQlXWSadaZZxMPtbJsXVnqsNnKRRTemLLBNjjtln1aVKl/HYsvGY3k+LeITEKuw8FVJDdLSqpxmltLm7JKu1corpGW1ynvI9Xu1pCUkKVmH3lVcKuHQczmdfiYsocW3TmeV7ueuFempwvnXqmnM5ciNtCTi5KQ/FZMHT5+nC4Sf6oJhs8aHSEslB07Z9lSOHJO72loygLRQ94bSRq2OtGQddlAG6j5r2TikYGQd/OfPs7tvskiEEQQT4XCkIKtUSVquJ0KRRoa2ClEx6Qjd9WPf8pzsZyJKttzodWlakZahNAhcx+I6tz/+8Y+BO/ns6OiW6D5dyghpWVy5dikvvlNdXisiLZk0hCQhl5J0n6DU5PtUZ6QNWTKFYgQlW0diH/fVj69kktylZBqkQlLc7xbny4WjSjAC293o0XN5/Mljeay3UX/+OPAsGFtGJlKOtBRpsa81fZ/lbykNxXWVv1N3PD4jv1aTgTpx6SosyhLSspo8DbEdWQFpSTtjd6qmCuAmclP13XR7KhftOmtXSNp9tymUeo7H3xVi8vzzbE2LJ1dGdKqlpThGce4038x30+267XqupThvfVmwH/kTIwMhcZlFWDQPkBbqQox1IZTm4UuLs26jCbjdxSVdpNqxo+59isq6Vj12IieecDSdHnKiQiY6ZF71epGWUOVim8Vgy2jlquedLS6zCovmJdICi0OpU8OXlk6NZZvojFaGTHSmLrKtqDiZPNhTSP0BptdiRMqTFidv6j6z0m1EJ4/Q2NdvRMa8mvNa33fOyfb+ypm8HFpeqqz0ISyaL0gL9WMo9QNpqexEm3Xi+S3AtetlqipMeg59Zow7tVK1/6zb3WvK015ai2Kkwyy+NedN5UzlqrT2Jo/m6L66fmYxv5s0lIrJdRjmeO2DBaQFjvrgaBmOgbRUSks15E5n36VzzqaCkgfcdZKd6rTVQ+VKi7tv3Wd6vkJYzPeSfNA7pLLfHnpg7pb68ZWcZg/wm4+Mdc0PvmfKktdhs4C0DLt8V6n+Ii1NpcUWjS6ikpzHTCMtatrEEhMzzVMZZcmiLSpVyb4VaU4+8yMyWQNR91nTfGe/Tre4rlIjxrVO75CRlul5BEdx5BHSQqdIpwgDMDBwBpCWODpkxGl6OSEtA2+sqATTKwF5RB4NnQGkBcaHwjjSgrQwyoYBGBg4A0gL0oK0LKCSU/GoeEOpeFwHLM+TAdpOeJsnb9d5LiItC5Cv6yxQjk3jBAMw4DOAtMCEz0Ss/yMtSAtTAzAAAwNnAGlBWmKVFD/dSMvAGyu/wPmfxgsGVo8BpGX1ynyo9RxpQVoYZcMADAycAaQFaRmKxCAtA2+shgIq10GjCwPdGUBauucd3C1X3iEtSAujbBiAgYEzgLQsV8eLCHUvD6Rl4I0VlaN75SDvyLuhMIC0wPJQWEZakBZG2TAAAwNnAGlBWpCWBVRyKh4VbygVj+uA5XkyQNsJb/Pk7TrPRaRlAfJ1nQXKsWmcYAAGfAaQFpjwmYj1f6QFaWFqAAZgYOAMIC1IS6yS4qcbaRl4Y+UXOP/TeMHA6jGAtKxemQ+1niMtSAujbBiAgYEzgLQgLUORGKRl4I3VUEDlOmh0YaA7A0hL97yDu+XKu6ik5fj4WF6/fs2oENGCARiAgYYMaJupbSed73J1vpRHt/KISlr++te/ysuXL6l8DRsrKkW3SkG+kW9DYkDbTG07h3RNXMvq1tGopOXvf/97MmLQSkjEZXWhpcGi7GFgOgPaRmpbqVEWbTvJs+l5Rh4tfx5FJS0KlFY+HTVoRdR5Wv7IAxiAARgoM6BtpLaVCMvyd8TIUvMyik5aKNzmhUtekVcwAAMwAANDYgBpYX0IYWMYgAEYgAEYiIIBpAVQowB1SCMFroWRLwzAAAx0YwBpQVqQFhiAARiAARiIggGkBVCjAJVRSbdRCflGvsEADAyJAaQFaUFaYAAGYAAGYCAKBpAWQI0C1CGNFLgWRr4wAAMw0I0BpAVpQVpgAAZgAAZgIAoGkBZAjQJURiXdRiXkG/kGAzAwJAaQFqQFaYEBGIABGICBKBiITFqey+OtLdlq+ffg6auKwkiP9/g7Y+Kv5PSTLane3+zH65DMnWuBZxiAARiIg4EIpeWBnP7YT+Y+/3xLtj5/7grNd49la6vNOVR82uzfT9qpYOQjDMAADMDAqjEwWGl59fSBbG09lucVIb/k809O5VXg8/S700Qki/p8fiqnnzyW0ynnWzWwuF4aUxiAARiAgb4ZiFtafjyVByExSbZvSTHt44IzTWg0k5MoTJMIShKZMVNKr+RVT1Ggvgua47kMkB/kBwzAAAzEx0Dk0vJKXmXSUAhKui6lNO2TRVRSGamOwBQQZ8fZMkISKtxsTczTCnkKRHGK44eOxzbyBwZgAAZgAAaqGIhbWnIpsKdqAutUbGHRNSxZJGbqgl6dPqpb46KfZVNMKkMs4KWiVVU0tsMGDMAADMzOwECkRTPCREaaRFGsjEsEJrB+xRISQLPyKxdFtsEFDMAADMDAfBkYiLQUU0LNFtFamVy1LgZpce+qQlbIDxiAARiAgQUzEL+0ZFM9ztRMMqVTvRDXMeMqOanavuACc9JOWmhAYAAGYAAGVoiBqKWlNqqSiMu0qaI0QuMIjyl8pIWGwLDAKyzAAAzAwFIwEKm01MhGG7BqxCYRoornuBDtsKbX2uQ3+y5FpYdf+IUBGIiVgUilpQfgsmml4lZp95jBp+XS6dLpwgAMwAAMwMDCGIhQWtr/9pD/zJZ0WqlmzcsUoYnVUEm3K6bkB/kBAzAAA3ExEKG0BG5Pbmy95nku3u8N6feTqaJCiILrXBqfJy4IqLSUFwzAAAzAQAwMRCYtQBUDVKQRTmEABmAABq6DAaSF6MnC5iavA2iOSUMJAzAAA8NlAGlBWpAWGIABGIABGIiCAaQFUKMAlZHTcEdOlC1lCwMw0JQBpAVpQVpgAAZgAAZgIAoGkBZAjQLUphbOfozYYAAGYGC4DCAtSAvSAgMwAAMwAANRMIC0AGoUoDJyGu7IibKlbGEABpoygLQgLUgLDMAADMAADETBANICqFGA2tTC2Y8RGwzAAAwMlwGkBWlBWmAABmAABmAgCgaQFkCNAlRGTsMdOVG2lC0MwEBTBpAWpAVpgQEYgAEYgIEoGEBaADUKUJtaOPsxYoMBGICB4TKAtCAtSAsMwAAMwAAMRMEA0gKoUYDKyGm4IyfKlrKFARhoygDSgrQgLTAAAzAAAzAQBQNIC6BGAWpTC2c/RmwwAAMwMFwGkBakBWmBARiAARiAgSgYQFoANQpQGTkNd+RE2VK2MAADTRlAWpAWpAUGYAAGYAAGomAAaQHUKEBtauHsx4gNBmAABobLANKCtCAtMAADMAADMBAFA4OQlm+++Ub++Mc/yu9+9zvZ2tqS3/zmN7K/v59s08+w7mrrfvrv/1f+x/96Jv/l7hN5Y+0z+c+b/1v+23//92SbfkbeVecdeUPewAAMwMB8GYhaWn744YdcVFRWqv5UYnRf4Crg+j8X/y8XFZWVqj+VGN2XvCvyjrwgL2AABmBgMQxEKy0aWTGSolKi/5uoigrKkydPkm36mYm+6D6zg3YhB7dGsntaU2AvD2RzNJLRaCSbjy5K5zy5526/eLSZ7Kv7+3+15+kYztTIipEUlRL930RVVFAO//S3ZJt+ZqIvuk/nvDvdLV2Xf53B/28dyIV/jXqs0HZrP83f9Hi7cmJt75x+jtG97Mk78g4GYKBHBqKUFltYpomICkyb/as6tqIjNB1i8bp7mopM0fHWd5ZBabl34oHdQI46gGALyzQRUYFps39V3lVvP5Hd0RQB1Gu0JLDI4yz/VWA8KQqJYnUaauSzQ/5yHvITBmAABq6PgeikRSXERFhMZKUJILqvibi0+V5xbF8i7P/t91WFlXbQpU733okkkZY5SItKiImwmMhKcX1V6Z4kURgTcWnzvenHbigtKg9+hMX+336PaHjyW12u08uH75JHMAADy8VAdNJiFtvqQtu2MJmIi04Ztf2u7q9yUYzitcPdlIOXWqBNpKUo+GCkJTA1pILT5/SQWWyrC23t61cRMZ+Zhbi+nJiIi35uf7fx+7poSejaSxKn+V1EsBzRQ1q6lQmCR77BAAxExkBU0qLrVEy0pHFnaRWIRmmM9HSKtmjnaDpT7YTztRU9SIs5bp7edseclh+6TsVES+x9zXYTgbFf7ekjjdIYsfGFxj5e5ftEWgrpSPcLR1ocIXHyw0jiRFT8cqFDWmh4c06KwUEli+wLLzAQLQNRSYuJlExbx1LXWHU7Rtq5lqZ2sghBeU1Lsd5llEdjisZ0EZEWEymxRUTlw5aU0HtbUELHqMtr57MZIi2JxISiMbotsKbFKaeSDBbl4KSPRizaRoxyhGkYWB0GopIWnRLSSItGXLpCata2aMSl2zFCERB/mz11lMJU2fHOaU2LTgmplGhkxVy32RaSFbNNoytmfyM59jbz2dTXmSMtWaUMRVW8beFIzepU6qllgaDlTJNX1AsYiIuBqKTF3L6s0zxdQTMLeduta0mlxBnB5yN/nfKYLi1FerOojRUBCHey/jFnA8vcvqzTPCYtZpsRlNCrvYbFLOS1t5ljTX2dRVpUSvL8tqNY2a3jSEteplPLAWEhr2AABiJmYOWkRRt1c/dRpwY+m+bI11Mkhe+vzShHWvJz6fdv7crurWJ9RmUUpseFuEZQ2kqLikye9skkn06ytzV6n+VblXyUtltSZx9fp9b857Qk+ZevL0oXTOdrjyKunPZ18342aSf/yD8YGAYDUUnLTItos87LLObtcveRuUvIdLD5nURJh1xIyGRSLS0mqmJe84qUHCNdqOqvecn3maEDDi2iNdtCERazzb7TyCzatbfNlLYkguIvzq2pWE7EpfheIjKW5JTydoZ8m+n6OK8jvORlDduwAisw0IiBqKSl2yJat6GY5Rhp53iQPxE37xy96YlqadEpHyM3bnQmP9YkvTMmF6KeQA4tojVrVIyghF57W4ibXEc2zZZFRXzZqO3UjBg+Mk/ENWJYnkaz87L2mD3lLedw6xj5QX7AAAxcFwNRSYtZRNtuPYoLj4nWtF3Mm3SESWdb7iTLkRHTobrnLnWmKjsaITAdcvLMF09aTnetZ8O4x2sDhREUfz2KkZmQsNiLdvVcJjLjb2+TjmRfK2LiTrNVXZ8leL4gWhEqk45SPiMnjUYwJv94reKQ7bABA4tmICppsZ+z0mV6x9x91PrOIe0Y8zUTnrR4wpEWaEBaAp1rsm+y3f0tIluCtAPuI+piP2fFn97Rz3SbCo3+qZzYERZNp36uYqOfzQJtEl1JFtUWC5jNdJu+hq5Vv5PLjSctyfGsqSFNG9JCwzoLo3wXfmBgeRmISloUJHP3T9tbn02URr/X6cFy+WjdlRZbMArQfWnR7xRrMNL90uOMrKe8mu8nna51t0zeYedp6AaUuftH5aNNtMREafR7vsyYNNe+WpGV+gWyaUSlkBgzlWZdry0tFSKItFj5NSMzteXKsWcSePIWTmGgPQPRSYsWsllMqwLS5EFzZh1L0/2HDJJZTKsCYj9oruqa7emjJvtXHYft7SsneUaewQAMwIDLQJTSotEWW0R0jYtO/ajM6Gf6p9EU3cc82wVhSQteoy22iOh0kE79qMzoZ/qn0RTdRz9TuWkqOFQut3KRH+QHDMAADPTLQJTSYiBQOTELa1VKqv5UXHRf8z1eJ4mcmIW1RkxCryouKjLkWb8Vj/wkP2EABmCgPQNRS4sWuImqaJRFoy0qKPqnMqORltnWr7TP0JggNFEVjbL4C3E10tJp/QrrHBA8GIABGICBa2IgemmJSRJI67AlkPKlfGEABmDgehlAWq7JBgH3esElf8lfGIABGFg9BpAWpIUwJgzAAAzAAAxEwQDSAqhRgMqIavVGVJQ5ZQ4DMOAzgLQgLUgLDMAADMAADETBANICqFGA6ts2/zMCgwEYgIHVYwBpQVqQFhiAARiAARiIggGkBVCjAJUR1eqNqChzyhwGYMBnAGlBWpAWGIABGIABGIiCAaQFUKMA1bdt/mcEBgMwAAOrxwDSgrQgLTAAAzAAAzAQBQNIC6BGASojqtUbUVHmlDkMwIDPANKCtCAtMAADMAADMBAFA0gLoEYBqm/b/M8IDAZgAAZWjwGkBWlBWmAABmAABmAgCgaQFkCNAlRGVKs3oqLMKXMYgAGfAaQFaUFaYAAGYAAGYCAKBpAWQI0CVN+2+Z8RGAzAAAysHgNIC9KCtMAADMAADMBAFAwgLYAaBaiMqFZvREWZU+YwAAM+A0hLL9LyXB5vbcnj7/oF7NXTB7K1tSVbnz9HLHopp37Lx69M/E/+wgAMwMD1MhCXtHz3OO3EtSNP/h7L88lE8s49324+z17zTv+VnH7ifbb1QE5/1ExOxSM9rruPKyPV+4W+WykcP57KA3MNpesy50+vb/LjK3mVddrPP8/kKPl+cf0Pnj4PXJs5Tv9CRcW83opJ/pK/MAADMFBmIC5paTTaTsXEFQ1z4f5nKiCutLjfaxpBCe+XyFQuTBOZeHLinqsqjWZ79qrH0GPm0qLXZK4h2yf/zPtuRf6V0lmxHxWoWX6ST+QTDMAADFwPAxFJSzjCUe74fTGxM87/rJ20aJQjGE2pivDk2z2pmNjpSN9PO27pOkNi4klRfsxPTvNIjV2R0gjVAzl9+lgePD1NprgePH3FVBTSBgMwAAMwsJQMRCQttnzUvbeFwN/P/6ydtNgdvvu+YaQlrwR+Oux01nxWJSXONFM2pWTOpd+pkJb0GtLzbW1lU00/Ii1u2dplw3vyBgZgAAYWyUBc0uJ32nlnbHf09nsfLv+zsrTk0Yk8SuKuB0mjE20iLlaUJYmO+N99LM/967LOnaTHnmJKZCSVpOSzPA/K00/5tdj7GJnJXpPr+eRUTj/fEqIsPi/8v8jGiXPDHwzAgM9AXNLidbjFajl6BwAAG5lJREFUxdgyYr/3Czz9LO/MEzkwUhGKloS2+cfU/5vul303k5d8yseJhrjpT6TClpZEcB7I6Xe6kPexnCZ3GGXXkHzWJtJinSs03VSZ36E8YFvBI3lBXsAADMDAdTAQl7T4EYk8gmB1vtl6kUJMjJQoQPZ++r/Khvk8JB7utvZRFhNVMedIIc6PY9LvX1dFpCVZU2MExpYM/b4eq7W0UKmuo1JxTLiCARiAgethIC5pqRz52zJiv/czzf/MlxZXLlpHUCrTZ6fjuTz+5LE8/mRLHn+uC2BfpXcVGYHxxKoUaak7R5X85Me208F7GhUYgAEYgIG4GEBaTKQluN4kjZTk0ziJMKTiU0RyTDQl/Op+N32mzOPvCnl6/nm2piUXi+IzrUyV0mJHWozIEGlZytXuNIpxNYqUF+UFA8vLQFTSkk+r5NMnZv2G3dHb7/2M9z+zIi2hDj+4VsU/hn8O839gPxWNRE68z6oiJOY6zZRQ3X563NA16LZciEzaeKVRggEYgAEYiI+B+KTFdOBOpMGWAPu9XyDpZ26UJJ0SctaLmMhFjbS4xwhHWXSfItKi5zbTT9PTWHzPv4b0f/PMGOeOnyqpQVqIwORMh3mi8SZfYAAGYmBgJaWlJATZ1FBpe420lPf1gW8uJkZAqkXIRJSycyRyogKULhS2xUWjUfn/32VrZuiwkBYYgAEYgIEBMLBi0uKLRfp/OMqin7l3D6UWGorWNIm02OduLjQl882FxRzPpNGk64Homhn93qsf06fcmgfHlY41AIC5JsMBr7AAAzAwfAbikxazziN5fSzPsyhJdZRiq35NR77OxCps55helMO7u6e6kjQUk6opHec60196TuSqYqqnWrwmUvdZdfqt/EBuGKHBAAzAAAwsAQPRSUs+9bEEmUeHj9jAAAzAAAzAwPwYiEpaAGN+YJDX5DUMwAAMwMCyMYC0ELEh5AkDMAADMAADUTCAtABqFKAum+2THkagMAADMDB/BpAWpAVpgQEYgAEYgIEoGEBaADUKUBnRzH9EQ56T5zAAA8vGANKCtCAtMAADMAADMBAFA0gLoEYB6rLZPulhBAoDMAAD82cAaUFakBYYgAEYgAEYiIIBpAVQowCVEc38RzTkOXkOAzCwbAwgLUgL0gIDMAADMAADUTCAtABqFKAum+2THkagMAADMDB/BpAWpAVpgQEYgAEYgIEoGEBaADUKUBnRzH9EQ56T5zAAA8vGANKCtCAtMAADMAADMBAFA0gLoEYB6rLZPulhBAoDMAAD82cAaUFakBYYgAEYgAEYiIIBpAVQowCVEc38RzTkOXkOAzCwbAwgLUgL0gIDMAADMAADUTCAtABqFKAum+2THkagMAADMDB/BpAWpAVpgQEYgAEYgIEoGEBaADUKUBnRzH9EQ56T5zAAA8vGANKCtCAtMAADMAADMBAFA4OQlqf//n/lf/yvZ/Jf7j6RN9Y+k/+8+b/lv/33f0+26WfLZoqkp7/RyzfffCN//OMf5Xe/+51sbW3Jb37zG9nf30+26WfkdX95TV6SlzAAA4tmIGpp+T8X/y8XFZWVqj+VGN130Zmdn/90V0a3DuRiEGZ/IQe3RrL56GKu+fvDDz/koqKyUvWnEqP75nk/iDyn4RxUeWp7MNqVE9iknsLAVAailRaNrBhJUSnR/01URQXl8E9/S7bpZyb6ovssQ2N38Wiz1MnrttFoVPyVpOZEdu3PRyPZPZ3I5OWBbHrbneNYjeHJPev42XeSY0xS8XC/l+7rykj1fqHvXpeYaWTFSIpKif5voioqKE+ePEm26Wcm+qL7LEPZN01DykPDjqxDpxc8fi7TytqmHLycJkcpky4j077T1+ehc6d8KtPJ9d07ccq8qo6F6oXNc359obpm6mlSBuX6VZKRyv1C383qOB2ZU45N6xD79VXXlus4UUqLLSzTREQFps3+1wl6qdFUccgaVqeRzTuP9rA4x/EaO22c8wY4ExVbWorP9LxNIygV+81wDXVlYAvLNBFRgWmzf915TX7Yndn09w2lwyunSdaxpWXjM5B21s5nyf7tzpWy6H/H7fRdHvx06P8hcQjtdx3bKs6dc6ef+9fXJB36vQphS6TFOmZ+romkZWZ9pmXatFyC+xVlUc9lk2tiH/JwOAxEJy0qISbCYiIrTYDUfU3Epc33mhy76T7aUTgdgTZWU6RFRUM7qOBo0BtJajquS1rSTi48GpzWeTsdrN9Bt/hfJcREWExkpUne674m4tLme+6xK+SsIv1hKWjQcGSjeYcT5xxpZ+3kabDTqz9XVfpyfvwO2kmDOXaFOAT3Nd/p67Xq3IV0OJIeipIE5aT4vlv+JqppiYnmuxNpsT7TPHDKJU3vtLoS/NycYy752lf5cJwSP5RfLxGz6KTFLLbVhbY2FCoi5jOzENeXExNx0c/t787rvXYI2hkZEUkatUw8nAbWagzzfRsCn3c6gf2dc0QYaTGLbXWhbdsyMxEXnTJq+910/zlIS9LJFdG3cDrTzu+6pCV8zrQDSkWnnbg66QwwWXe++s/SfKiWu66d5nVJS016HLkx+xFpqS9/k0+8rlo+RSUtuk7FREvsgjLbTQTGfrWnjzRKY8TGFxr7eNf13khLsg5FZUUbq0RavIbSGRWaUHXaSBcjMbPdja7MIi3FsYuOyekUTKdau4am+K4er69OS9epmGhJl/LRKI2Rnm7RluuVFiMETn4HO/mUAydfg51efWNuzmfK3Dle8Lyh4wXSkn+37rPQsdpu8+pDg2iEf80myplOc5n6pMc17700+dEnzXdz3sq6YUdfUoZMnjd6NcfP89VLE9s7DkLIxy7t6DJ8JyppMZESW0RUPmxJCb23BSV0jHkVhDaaTqekDZ0jL90qUtIYZxEb+71/XRpp8RvKtLMKdcihbaH0Nd0v9N3m20ykZNo6Fv+a7f9nO0a760zKoVGHU3S+DhuVnVFABjpLS9GhFmwU2+y8C75POvGKDj5b79JNhppwkeZDnmeW6OfbKvPQP74tKvZ7bz/rHHk9MmUcKoPQtlCamu4X+i7bkJYVYyAqadEpIZUSjayYRtRsC8mK2abRFbO/kRx7m/ms7jXphFpEGEyjZjegeoz0/7QDNPs0a9jTRtp8Z2SNBm1R8dNpn3+m6aGkYS1LT5Ge6s+aXZ/XQXgVUaeENNKiEZe6cqr7zKxt0YhL3X59fJZIQCaS4eNZDNw7aHHbeMqBk6cdOr2Uk4CgWB2zcw6vPJJrqj1vIJ2hY3Telh7f5tvkcy5gRiiyc/h1ozrSYrNs5VGSN9b/ev3mHKG8cLZZ5d22HTHn6JxX9XXL5Buv5FMMDEQlLeb2ZZ3mMZlrthlBCb3aa1jMQl57mznWdb7mDWnWYCUdgjZq2rFZHYUvAaFG2U9nSVoqOstp0uJ2Uu0iC36a+v7f3L6s0zxdj20W8nZf19K0UavJu6QjyzrFvJxq9vc7qowVp6yczrFZGiulJT9ftRSY/E+YrupQA+ksSUODztu5zjxteo3T0zf9Gk1e6bFMxMh+bz7PXqdJi58XHcrF5C2vXt47Zc9nq8zHSkiLioxdyEZs7G3zeG+kQRtTR1q0QmqD6DR6aUdW3WgXFTdpnLMO0H7vX5M5f7rdPn7aAfjCpP/70pR0VA06m9B3/fS0+b8PadHzmbuP2py79b5TOuxymbaQlqQjNB1sxkBl56jH9fbNGv/mHXrBmZsPU6QhyYPwud3jVB1/2vYp52/VydmiYr/30lAjLWl+2hEa896KzJh63rD+lJ7x0uqavLTzXacP6IdB8ngR+RiVtIQW0ZptRkRCr/adRmbRrr1tXhmvHb52WNrAlaTFuZsncHtl1hHaYmE6P1tU7Pf+dVVKS7CDCXek7jGqK23T/fw0Vv0/2yLaNJ1mMW+Xu4+q0hXarteeTxs06izCed342BXSknakYXFIP/M61EZpTfNy6vcr0hS6pm7b2ktLUi62MOSDBFtU7Pce3zXSkhw7j5xl3wvlgX+Mqjxvul/V99mOpAyUgaikJbSI1qxRCcmK2bYcC3GLUa82+GVpsZ/rEOjEnEYs/byLtNjSo+/1GEkHlDfgpqEOpGFS8bwYuyOw3vtRmm6dU5qe2RbR9neMadeQdoxhUaj+bjivS/snDATuyAp0jqlUBPbNGrKp0lHX4FWlw/pOmCnDVh+v3aQlZ1LzLGfeFhX7vZfO7LqdOpQcI02LqY95uQXKpW4q2DluUo+6S2WeBqtM2OaVJ3kTpdhFJS1GUPz1KEZmjKTYr/aiXa20JjLjb7/2Cu1IR1Z5tFHzRmemsyka1Gxf5/vdpSVvtPMKW9X4hztS7ZTLxyg3Bk33a5rvZhHtLOtRTLRmlsW81elN89FeIF29r59f4bx2v5/uU+JCy9HpHLP9ptxu3l1aqnixrylLg8e2ez32/l3eN0mHe1yHyc7SUhaJyrx0yiVLi1OP3fQ5+dN0v7we1xyLfaLsnB0eKMO8DKOSFvs5K/70jn6m21Ro9E/lxI6wKAD6uQqNfjZvIJKGzW/EHWkpOpvNe7vp7wnZ+zuNWLqvGdnZx7bfN7nGZP98xGk3fOk5fEFJIwlmvr7+1f9uk/RU7WM/Z6XL9I65+6jvO4eS/DPRJbu8WjUy4bwu8sKwUe4wk32yznE3v6W9Yj8rTWm6p+9XpMFMWTaQ1iQ91VEe55hWmtptX4C0BNOapsPURecaKqWlvt4UEZeW5RNMn12nee+UD/k1936wj/yPSlr0gs3dPyofbaIlJkqj3/Nlpo+MrD+GNmzWlEHWqGvjlHTs2f+lTt5u/BNpcRu73VPTmbnbi0ZPt1vnLVVSTZffMKaNcHqM8ned0WrpeEWj2HS/+nwrjqf7mbt/2t76bKI0+r1uD5Zz0+GISlD43P2nX+MUaVEO6s5j8RTsPAPl1F5aPIatYzr5kQlciWVr/+n50ST/Uk7bnKck3JqnVt659caqUzUyqtfup8HJD/+7zuCj5jqb7td7vtakiXNF2cn3U9+Wh4vopEULwCymVQGxHzRXVTj29FGT/auOs9Dt2ojVdVwr0qCYxbQqIE0eNGfWwjTdf6FlvCJluKg8VmlpKnWLSiPnXZ7OkbJYzrKIUlo02mKLiE4H6dSPyox+pn8aTdF99DOVm6aCA6jLCaopF4222CKia1x06kdlRj/TP42m6D7mNmmEZbnL1JQtr5QTDMDANAailBZzUSonZmGtEZPQq4qL7mu+x2v8FUPlxCysVSmp+lNx0X0p8/jLnDKkDGEABqKWFgXYRFU0yuIvxNVIy/zXrwDVvBoWE1XRKItGW1RQ9E9lRiMtfaxfmde1cB7qDQzAAAxMZyB6aaGQpxcyeUQewQAMwAAMDIEBpIXFj0ydwAAMwAAMwEAUDCAtgBoFqEMYIXANjHRhAAZgYDYGkBakBWmBARiAARiAgSgYQFoANQpQGZ3MNjoh/8g/GICBITCAtCAtSAsMwAAMwAAMRMEA0gKoUYA6hBEC18BIFwZgAAZmYwBpQVqQFhiAARiAARiIggGkBVCjAJXRyWyjE/KP/IMBGBgCA0gL0oK0wAAMwAAMwEAUDCAtgBoFqEMYIXANjHRhAAZgYDYGkBakBWmBARiAARiAgSgYQFoANQpQGZ3MNjoh/8g/GICBITCAtCAtSAsMwAAMwAAMRMEA0gKoUYA6hBEC18BIFwZgAAZmYwBpQVqQFhiAARiAARiIggGkBVCjAJXRyWyjE/KP/IMBGBgCA0gL0oK0wAAMwAAMwEAUDCAtgBoFqEMYIXANjHRhAAZgYDYGkBakBWmBARiAARiAgSgYQFoANQpQGZ3MNjoh/8g/GICBITCAtCAtSAsMwAAMwAAMRMEA0gKoUYA6hBEC18BIFwZgAAZmYwBpQVqQFhiAARiAARiIggGkBVCjAJXRyWyjE/KP/IMBGBgCA0gL0oK0wAAMwAAMwEAUDCAtgBoFqEMYIXANjHRhAAZgYDYGkBakBWmBARiAARiAgSgYQFomE/n52y/k/tPvoyiwa7P0f3wrXzz9Xn7+9kv59h+zmfC1pZFGZbUZpfwpfxhYeQYGIy3fP70v9+9P+QuJycWXwe998e3PSwTHz/Ltn76U7zOxuC4p+P7pF/LtP76XL0P5RGOxRDwglddVBzgubMHAcjMwIGnRDlcz+2f59um38rN2snYnb783HXAiLF/K9+b/5PV7+fK+v20ijaQokabyd00l0IjOlxcdgbj4UlSkUrHIjqHprxAMPZcvXvXXYPKvIn16rj9l+erkV3j/ma61wfFNnvIazn/yhXyBARgYIgMDkpYpURYVCquDT6aE7t8PduxdxSI5pnWOyeR7+dLq6Ks7chWlKel3jptVxpbSUgmwCp2VztB+Kjy+BIX2S675/hfy5dMv5cunTLuF84jGlHyBARiAgS4MDEZa7ItXOajrYG25cDrjGgmwj6/vy+dQ8fCjFU2lZQq8oSiRRiNq0ltOX/U5NA/qRS10bdXHS6Jdf2oqOXXH4TOfO/6HCRiAgVVmYDDSUjf1oR1yIirBaIKuF7kvX/zpi9bTH4UYZccorYOJQFqaTPs02cea0jESZF5XuYJx7XQwMAADMNAfA4ORFhsKN8qQTr0UglHOvGqhKe9rzmOfIxGm0PRN4+mh6vMk57u2SEuzCIorHypofkRpSvotoTH5xyt5BgMwAAMw0JaBpZOWV69eyV/+8hc5OjqSL774ovQXvECNBExbE5J97stLIhxV3w1GZlLITEeeCE9QWLKFwNYxdF9/GsYcJ3hdprPvIC16XP9a3XOkMnc/sOi4vJ+3uFjTM/V70ytjqHzZVmaePCFPYAAGYmNA+3Dty7VPd/uU6X1D3f5LJS16cXqhf/vb3+T169edLzQRiWmdatLx6uLXiqiBfm4Jh5OJTTttb81JSVqaTrvo+arEyIiN8zotgpIKSyJQybVU5EFw7U4GnHdtTv44aZkNUI5L/sEADMBAfAxoH659ufbpfYrLUkmLWpleZCdAk863/g4cE+VIpCYTEucWYruz1eMFpaVq/YoPVXkaxZGWJDrkRTDs89vvW0pLEj2qkpyQpGR5Z/KnyP/yNRSf6W3g1bJj78d7nw3+hwkYgIHVYED7dO3b+yrvpZIWNbIuEZY0svKFfPtt9XNLqqZhKjvekLRknbt963RVQYSmZ4y0JFJhR4LMcaumqXR7lYRYcpMet3rf0nmt7ybPtLnv3UXkRVPy49vpDIrdalTGqrJnO+UPAzAAAykD2qdr395XfiyVtOic3UwXlkQvqqMt5UjClIfG2R1ycuxmkQWVk9B6klSupq01aVnZ7WuuFBtrOsgWFf99Ik9p9CckKOX8S6NO5e0tr8FPB//PVg/IP/IPBmBgiRiYuW+3rmVY0mJdWFP5aRVp6XD8pulgP0QHBmAABmBgiAwgLcgDowgYgAEYgAEYiIIBpAVQowB1iCMGromRMAzAAAy0YwBpQVqQFhiAARiAARiIggGkBVCjAJXRSLvRCPlFfsEADAyRAaQFaUFaYAAGYAAGYCAKBpAWQI0C1CGOGLgmRsIwAAMw0I4BpAVpQVpgAAZgAAZgIAoGkBZAjQJURiPtRiPkF/kFAzAwRAaQFqQFaYEBGIABGICBKBhAWgA1ClCHOGLgmhgJwwAMwEA7BpAWpAVpgQEYgAEYgIEoGEBaADUKUBmNtBuNkF/kFwzAwBAZQFqQFqQFBmAABmAABqJgAGkB1ChAHeKIgWtiJAwDMAAD7RhAWpAWpAUGYAAGYAAGomAAaWkL6sWXcv/+l/J92+8F9v/52y/k/v37xd/T76OAhpFBu5EB+UV+wQAMwEA/DCAtAZmohasnaUmF5Qv59h+mIL+XL1VgEBfErS2T7A8zMAADK8IA0tK2oHuRlp/l2z/dly++/dmtaMmxbZExQsNrrUi2LUP2d7kjP8gPGICBSBhAWgIF9f1Ta8rmvicXRlqS12K/Ly88sfjHt/KFPfVz/76U9vHPnXwHaUFQPJZ8TvifDgYGYGBFGUBavIJPhOVP38rPZnsmH7lwGFmx9kklx1rn4n9nMpHydFC5Y0r3sY5j0sArDRQMwAAMwAAMCNLiQaDTNrXrSkJTOJ6kJPJhSU0SOfD2KUcTWNNSzpOy2LEPeQIDMAADq8sA0uJJSxrt0GmfioiHmR6yv1cjJMXx0qmkPGJjf3+SrnGpPKez7+rCSkNF2cMADMDAajOAtISEwEwBmTUpdtSkibRkEmNuZ05EpVJsEBYaodVuhCh/yh8GYKApA0hLSFrsbUZgzK3IDaSltC5GjxeUFoSlKajsR6MGAzAAAzCAtNiCUvHeWaMyVVrCtzObaaJieghhoQGiAYIBGIABGGjDANLiiUp5IW66QDZ/pspUaZlI1d1EOl1kjlPax0tHm0JkXyo9DMAADMDAKjCAtJRkwURAimewOHcTNZCWSb6w1hxDn71i3R3krXkxa1/MaxGNoRKuQiXkGuEcBmAABpoxgLSUpKVZxgEY+QQDMAADMAAD82UAaUFaeGATDMAADMAADETBANICqFGAymhmvqMZ8pv8hgEYWEYGkBakBWmBARiAARiAgSgYQFoANQpQl9H4SRMjURiAARiYLwNIC9KCtMAADMAADMBAFAwgLYAaBaiMZuY7miG/yW8YgIFlZABpQVqQFhiAARiAARiIggGkBVCjAHUZjZ80MRKFARiAgfkygLQgLUgLDMAADMAADETBANICqFGAymhmvqMZ8pv8hgEYWEYGkBakBWmBARiAARiAgSgYQFoANQpQl9H4SRMjURiAARiYLwNIC9KCtMAADMAADMBAFAwgLYAaBaiMZuY7miG/yW8YgIFlZABpQVqQFhiAARiAARiIggGkBVCjAHUZjZ80MRKFARiAgfkygLQgLUgLDMAADMAADETBANICqFGAymhmvqMZ8pv8hgEYWEYGBistR0dH8vr1azpkpAwGYAAGYAAGBsCA9unat/clU//U14H6OM5f/vIX+dvf/tbbxfWRJo7ByAUGYAAGYAAGujGgfbr27X3l31JJy6tXrxIj04sk4tINkL7A4DjkPwzAAAzAQFcGtA/XvlyjLNq3dz2O/72lkhZNnF6cWpleqM6D8UcewAAMwAAMwEBcDGgfrn15n8KijrB00uJbFf9j+jAAAzAAAzAAA8oA0jKAhU5UZiozDMAADMDAKjCAtCAtvc01rkKF4RrpGGAABmBgcQwgLUgL0gIDMAADMAADUTCAtABqFKAyslncyIa8J+9hAAaWhQGkBWlBWmAABmAABmAgCgaQFkCNAtRlsXzSwYgTBmAABhbHANKCtCAtMAADMAADMBAFA0gLoEYBKiObxY1syHvyHgZgYFkYQFqQFqQFBmAABmAABqJgAGkB1ChAXRbLJx2MOGEABmBgcQwgLUgL0gIDMAADMAADUTDw/wFJ/N4dG+jQNAAAAABJRU5ErkJggg==;" parent="1" vertex="1">
          <mxGeometry x="10" y="70" width="128.54" height="99" as="geometry" />
        </mxCell>
        <mxCell id="WB0BFBL55_z6dredpq6V-8" style="edgeStyle=orthogonalEdgeStyle;rounded=0;orthogonalLoop=1;jettySize=auto;html=1;" parent="1" source="WB0BFBL55_z6dredpq6V-3" target="WB0BFBL55_z6dredpq6V-7" edge="1">
          <mxGeometry relative="1" as="geometry" />
        </mxCell>
        <mxCell id="WB0BFBL55_z6dredpq6V-3" value="" style="outlineConnect=0;dashed=0;verticalLabelPosition=bottom;verticalAlign=top;align=center;html=1;shape=mxgraph.aws3.lambda_function;fillColor=#F58534;gradientColor=none;" parent="1" vertex="1">
          <mxGeometry x="300" y="83.5" width="69" height="72" as="geometry" />
        </mxCell>
        <mxCell id="WB0BFBL55_z6dredpq6V-5" value="ssset/otherssl/csr" style="rounded=0;whiteSpace=wrap;html=1;" parent="1" vertex="1">
          <mxGeometry x="160" y="90" width="120" height="20" as="geometry" />
        </mxCell>
        <mxCell id="WB0BFBL55_z6dredpq6V-6" value="cst-sslsettings-entry" style="whiteSpace=wrap;html=1;" parent="1" vertex="1">
          <mxGeometry x="270" y="150" width="120" height="20" as="geometry" />
        </mxCell>
        <mxCell id="WB0BFBL55_z6dredpq6V-7" value="" style="sketch=0;points=[[0,0,0],[0.25,0,0],[0.5,0,0],[0.75,0,0],[1,0,0],[0,1,0],[0.25,1,0],[0.5,1,0],[0.75,1,0],[1,1,0],[0,0.25,0],[0,0.5,0],[0,0.75,0],[1,0.25,0],[1,0.5,0],[1,0.75,0]];outlineConnect=0;fontColor=#232F3E;gradientColor=#4D72F3;gradientDirection=north;fillColor=#3334B9;strokeColor=#ffffff;dashed=0;verticalLabelPosition=bottom;verticalAlign=top;align=center;html=1;fontSize=12;fontStyle=0;aspect=fixed;shape=mxgraph.aws4.resourceIcon;resIcon=mxgraph.aws4.dynamodb;" parent="1" vertex="1">
          <mxGeometry x="460" y="80.5" width="78" height="78" as="geometry" />
        </mxCell>
        <mxCell id="WB0BFBL55_z6dredpq6V-11" style="edgeStyle=orthogonalEdgeStyle;rounded=0;orthogonalLoop=1;jettySize=auto;html=1;entryX=0;entryY=0.5;entryDx=0;entryDy=0;entryPerimeter=0;" parent="1" source="WB0BFBL55_z6dredpq6V-12" target="WB0BFBL55_z6dredpq6V-14" edge="1">
          <mxGeometry relative="1" as="geometry" />
        </mxCell>
        <mxCell id="WB0BFBL55_z6dredpq6V-12" value="" style="shape=image;verticalLabelPosition=bottom;labelBackgroundColor=#ffffff;verticalAlign=top;aspect=fixed;imageAspect=0;image=data:image/png,iVBORw0KGgoAAAANSUhEUgAAAi0AAAGtCAYAAADasUQ3AAAgAElEQVR4Ae2dwWskR76g359S/0QdGx/WvMP40rosFj4I5iDoQy8DolkwPfDQeBmED73CjBHudbcXZoVhQM0DedwescxDl0Zqj5888Ggb2uqh14I1Vs/Yq0NDXX7LLzMjMyIyMiszK1VVkfUdRJWysjIjI76I+OIXkVn/NJlMhD/yAAZgAAZgAAZgYNkZ+KdlTyDpoxLBAAzAAAzAAAwoA0gLkSYibTAAAzAAAzAQBQNIC6BGASqjLEZZMAADMAADSAvSgrTAAAzAAAzAQBQMIC2AGgWojLAYYcEADMAADCAtSAvSAgMwAAMwAANRMIC0AGoUoDLCYoQFAzAAAzCAtCAtSAsMwAAMwAAMRMEA0gKoUYDKCIsRFgwMg4GTeyMZjczfphy8TK/r6nRXNv7rgZy/HsZ1wuv1lCPSEoG0uJV8JJuPLhCNpSm3E9l9Y03W37kj2x/uyf6fL+SqIm0XjzaDjTWN2/U0buRrmq+Xj+/KjZvrcue9Pdn/7Fie/ZDl9+WR3LXZPb2cS7vitmeptFw+2ZW1TGTGb+/KySVMwG+YAaTF7mBOd61OxYwEvNd7J1nFPpHdfLTg7WNt70Mw3Eoej7T46S5GV9X55e4zlo2PziolYCkq9fN9WbfKe/zBmbhyMpLd07TyuduLEeZSXIddD3g/l857PuV+Jcfv2fVtXfafZ53B6a6MLXb7aKuaXJPbLmg9uJKTe2tu23vzrhy9CHdaTc7BPsPNO6TFbqCRll4ba7dxshvONu/Hsv7RWfd0vb6UZ6eHsv/+Xdl8Z13eHNvnviFr75gR6Jmc/9S+ol/8622nsd3+8xXSYtcp3ndnt4+8++FQ7lhiMtrYl/PsuGcfvWWxa8lMH+etOYbbLhh5P5eDX42t9Ixk9MYdOcymjpCQ9m3TUPNsJmm5fH4k++/dkfW337SMfSxvvq0dwb4cfdM83HhxeiB7727K+s0bFrjaqWzK3Q8P5OTlVW3lD1eE6yxoN9JiRtOTibu9cvTy8kA27cbkWt7vyklN43HdULtlYstC+n78z+uy/k725zBU7Ns5VHz5TA7v3fYkpTiuG9Ex28fy5u09OXrelNtLOXrXfFdft+X4atJOWl5fyeWLMzl69FC2t9blzTfWZee4+vyrXed6qs+vL+Tss/0kv9feKMpPedx8d08OTqun+Pw6M2t5uNG3Ii0hPpP6cuuu7Hx6JOcNp0/OP92w2tOR3PnMsHUme7+wzveLPTmbU1vhtgtGWrRsXXEZ/+ogFyw/3/m/p7owpzLvs7y6SctPz+Tg1144r6LTvXHroZzVjWB/OJHdX3qGHTzWWNb/5agS4uqK0LBwm0RZsnQlgqLzwVY6kZaG+RyqJBfHAQbGsv7+kVy0XpR3Kc8ebcu6E1GxGmerzEIdQ7pNz30sl6G02tuujmXbPt57x8lUlt8RGTbc7WN586Yt+1Ya8ylIK0+HWOfsvJzT+/PPmrExfntbDuumJ3oqD5cJiwGbq9D78YbsfV0/kJtMfDHZlZOrjKmv9+St0HEbbbNFQ493IQe3WqS90TmK45n602fHx7GstmVOda+vPO8gLRdy6IfxpkBYacxXZ7J7s4CzuhMp9lm7dxJc4zB3aXlhR0puy+GFgSAQadGoSrLgbV02f/8sjRh5kZbeKqYjX4uNtEyHVAXjbr4ALy//NzZl74kZEZp8bfD6+lwOtuxIXcbNGxty98M92X6n4Gg00ry5ksuLZ3L8aFdu/3NZnMe/3KsVbl3gmKd5NJad47QT8TuiOx8dyEONSAbOUXzfSltJWgZa5+baWF7JyQfrVkTYyu+q9mt8Ww6C4tJfefisBHmoTN+2HNcMCJXPqjUrZx/aU0MN8sJJA9IyvW1r0F7Nlf/hpKe1tFwd7zgVoWklC02T+KHLZsd6S3ZPyyOMmaWlJUCXn90pOqx3inni4PSQLSimQ7K3jYrFmjNXhkik5eJ0X7bf9kVBo2kH8qxh6NvNKze0nLA0Xpedz86ziIk/GvSFLixQlcI9uZTDLaux1/B6NtVz+P56wYbT2Fv759t1OnVNbuT/j2RkGMmYpM7N3uCeP7rdqd0a3dyVMxOduIbymElaRiPZ+PS8Ytr8TPbsAeFNa/rn6lh2ZopEIi1u2zM7nxyveR62lpazD9yOZu3X+3Ly4tKKfugc/Yk89Ee8tw7kwhEDHa3YjfhYNj44kmcXlpC8vpKLbw5lx+vcxl6jrgU+X2k5l/2NIu1uwxGItNh3mJi0l6TF71SL4zeTuZGMNI+XXFou/+NQdm+VoyEajj/4jw7RlYSp8t0H47d35Njc2pns45ZLklcOj2ml0WdFmFsv03wfy93HgXQ935cNSzSUgfPft5GVddl7ciFXyfSXlzbDSJY+6lzzBi3Y+Ht1LRXaDdl5dOIsvr56cSL7/1KOxhTrQNJ09Fce1eufQtdx9eJIdmwRUf5+dei1q2kafRl681axPsT/LLk+p91oe4ei33b5AwK3/PzzB+tXoG6G8oRtbt6uQn60lpbGcnB1Irv2Qq8kHG9ncAvQ/UanJEA9SYtXcUOysPlIOydrcdv4rhw5naN/Xa585BEn75p2T+u/F0pLaduySsvrKzk/PQjKyuiNTdn97Nn09SM1jdjVn7fdUfTNXTnxw+beGqTRu0eV53TKVzuGwCLFcnh9V06e7AQjLGtbO7L/2Ykcf1z1nJZ6aRl0nasp174a4FJZ3fSF1m6XygJs33GjaeqvPNpJS5IfPmPj3fIC2p+OZbsUSTEiUbHOxWv78naqUfn4bZc5l52v1nvvGtxzXcjB1lpyI8fh180XRPfFCsexyqlR2c9//9bS4t4mN5Ik0jLlzp4wCP6dF1mkxRGA5hnSuCGpKwiv4pakYDSSzT+cyfH7ZjQ2ltuPAuHZF0eyfcsL+Y/flI33qhcS97KYLSBz4bxvnq+dvv/TpVx8cyKHn+7I3V9WLDZNohTaOKW3Iud3ESV3E3l5Z0U00rUodvq9Rni0UTyHwi5rO9o1Gok+T6Xy2vwFtqO3ZO9r65z+baRJ+nbl5OWB3Lm5Kbd/6a4XMOuV3BGmHWKvl5ZB1zm7jK7lvc/HWPS29Mqy1zTo9EnyMLaHcnD8TC48Ae6vPHqQls0igpJe05WcvO/yl7ZjqUi4DFoRlQZtn30cN/9aSou3CNipi95gbnTzoTy7Fi6s+szx6+vDkuVPa2mZfL3nhc/TSILejnfnvYdycHQm55dTGoUsE/yFYkYSbtzclLvv78vhabnBcCtLAV4v0tKicM4f3ZGND8KLgqvS2HV7ZUPTIr1dz932e35aTZn29+qO4vz1Hm99GJYRd9HsSG7/a91ThX2hthr3ycSNtOVCVaTLz4NZpYU6V9TztjxOnAXz2lalt6W3Po5d13psA6tYKaXv6lIuvj6Qu9700Pi36R1rZv+rr/zpTRPp1eijF4Gx17n0Ki3mnKHXXTm5OJTbeb0ZySi7606vwc+Pt2Z5RpNdZryPSkwMz6HX9tIyCYRPbQCz9+N/3pC7Hx8Vj4wOQhNYPBk41o2bd2T30YlceAvi7Auaq7Q0ruBepfXWKtjpr3vvV2Q3nDpDgx4skxmP54V++5MVk5eFHGiendyz11hVPyDL3c+LnATywR9N56PBH47kbin0rmkr0uWX18zSQp3r3uD6dbWXaGR/baDPSrv6suZGAH86qbkbc1t2P7AfU+FFnPx8CrTDadoKzos2y4+0mLoaetXve5HFPFrkrhUcVUVNA/W1SMuM7RfH7l7X5pR3HaRFobiSZ5/ece94qIT8hmx+eFK5fmAyubSmW0KQW9vG67L96Jm16LcAtBdpaVBxE2FosF+w8amTFj8sau3rN2xLLS06DTN+M3toXPp7PHv6mzyfHcvxsf49dJ/QORrJja397ncMbdp8BOb3k4rkTxHsTH3onp/n6R092lmFQu+ahqIx9787u7QMuM5dd0Pn19VepKW/8vBZCbYbwbZ1LOtOpNefFnpL3nLWFO7I4elD2cwepje2ohtJh+/lU7s2poW0JGtw/JswsvroLW4fbR3W9BtF24+wrFZedJSWLJMuz+Xo02254zzF1upErMpW9XyVHLiLEzn48K5sTH2WRXgdSQzSUjslMRRpmdIJ+Y109S3FTSqiN2Kr6pC8OXQ7HJ3z56Xbj7QkYer/eBicGvVHoP41TpWWn9wHFfq3PDtpHFqd8/LdudY+PvM646q7xjqfd8by8FlpIi3jf74te8fl6c3LP+/kfGp7e+T8mnIm1ZdnsrcVWKju5dNs0lIIvOar0zZnddStX5ty8OJKjn9rR02nR0M7l1kfXHGMhUVkZpMWu+B+uih+4yUoMc0hvLo8l7Ojugdy3ZFDb8GuUzFG9iLHJp1fl3280UVgVOBWzCnX70mLPZfbpWFr1+ik1+/moSefVUJgMzD1vR/+LZdju4aoibT4jeEofAuzk3b/R+bMGhgrKnhzT/bet/OoaKj98qqUllP7AYXFsfKpKCdNAUYHXud64dHrjEf5VEQgP6fl97TPO5SHz0qttPynbTl6Ub9e8OrrPbnzQRrZdvOv4DNYx7x8atd+nMmuPWXq3W3npCNrR/SOP/tat3+/7/6sSS/tzTWU8TQG+PzaZaY/afEL64ez0qP+GzfG3rGuXpYf8+5HLZyK0UlaPAmxokR25bJHwc4D5kbeQ+/8Bzh5FbnUcNQ0Gq0atizd7RqdOUlLi9uOS/njMZF+fi77zlNuA9M+fsh5vJP8PlDt8f2yc+4eupJnv99OHnDoMld0Cn55VUrLS0+6krJbk92v6jumyrRHV+fqOxU3fwupS+pj007Nu2us2ULcSzn89Zpsvqu3qje/saBULg3Ko4oVnYK/DDyjSn9EMPyU3nJeuvlX8FlKp9Ytr/1x2jynLQwNCE9kx97HKRtvUbv5zG8L7O/7bWmw7pevN3hdfPfaJWLe+d5KWvw7MNyHqgUg8m8dNcBOJuJGIYpHoFdmgN/4WGs+9DtuBQ1VrED6HKDbS0vy2x72an7r+SBnH9mL3ty7T0LX6OftzpMivX7DVt2gFA37UkqLF02yBTCUJ9O3eQ2iIxeaf+WF3msN7kY4/4P9PJXwc1rKzBWdgl9e1dJyLgfWmhxdcO7/fIHPxbDqXMF4qKzdOl2w3UpadNGnHQUYeQtQnTYgS48vutYdR32Wh15zFSt5foQW11b+vICbn27+FXzmx7avfRZp8e7QcgenXrua9wHedktaxskzlE5kV39QdWtb9j6tWxPpXnPw2uzr5H30EtNKWia+OPxip/wQLxsKfy2B9fRGPzyoc83mJ9ND4LlRjfJzNtwK2oO0WFLkHNvarun0n6A6/tW+nBx5tx3atxba+WO9d+9uGYm9Bshv2LoISShP/W3OdVqNSLtOoqYR8aXl/ZOZK1CJC/1lWH3K7NV5Mlp2BG9c/1stSXl+sy+3nU6uWjjd/Co6Bb+8qqXFzStlQH8hXRvq/dPsKbyDrnPu9V8Xj37dGv1i23sgpJ2Osug6txX3WB56vVWsOHnx4qDE5KhRm2KLXsGnc2zTBs0gLX5b7j7h1hVz+6GOft1N6ur4thy+nMjEuS16StrNNfA6c3saZGPJ8rWdtEz8NQkjGd28Iw+PnsmlfTuyzu0e7cqG1/jb6zSSBzh5n49/uSMHp+fZo83ThkTXt5x8Wv5RPbdiXEOkxZITp3OytpsCrv9dkwbh/tJ0hDY2Y9n46CxZPe83bNclLeZ6ru/VCyM3kIipafGfPeHLVv5/xeP4rQp5cbRT/nXoDft3pezOzWeuaFj98mouLUUnU5TxkOucm59Ty9oqq1b7liInIxmNN2TnszPrwXE6HXMU+LVxfy1aj+XRVFoCgyPt4Nc+OAveSWnyxmm3rLvbzOfOqyctBX/Ty8iNmvuPHXDrvBOFeeH+FIZe0+Yfsod12gOcaVPrXbnge1FKTktpmYiGR+1fDnVGsnkHUTS+xeflJ5X6UyjFvqHvW9sC6xLcCmrtW5sm+8fpvHClJSfOsa3teaV/fSEH/zV8zo3/mf2qc00FKT023krzjVt7su/9AF+bBiVPY83557ePP50zkuSXlDv9QGLRmNZLY1ouduTKvd4rSX68caP8e0i6fuAw+Cu/6bkdLqxOoUpa3PMW6U+3u7eB2mU83Drn58H1/d+EkVD7k05VuOnqszyasxJ6Noz3nBavjlfxGeSws7R4jxNwfjx2IpdH7k9sFIPNckQryX8zSLAjWvmUklsOwevw8oB9hpdnraVFHzd/6P8YotXJhiq+Rg3WPw48qfTqTPa8H0MMf98Wghty96j8A3ZuBbX3n/I+l5AW0pL9mu/xZ/uyvbUub3oRI/8abmzclb1Hx+EH7XnzwaONHdmdkr+bv38ml5eXTkQqlsqp02lv+byM35Tb72VPQNbrat3wXMrxb901REUZpM+zuDTH/OlSLl+ciZbdzrsblWVX/sHFcuV3mauOtGx+ej79mn44lh3ruRq2tAy3zpXz9Po4vpKTD8zPb0xpEwyf1ho1N139tYHNpWUik9D6lpppoio+3WvJyqCrtHhLADY+fSbH71Xlrxm4hgSs+I4OMC7th1QiLVFGRIKcmXZ4htcO0qKQW7d+mgpe+XpD7nwafiBcclE/PZP9KZ103gGN12Xnz2Vh0eO4FbSoAPl3q9JXJS2V+x97zxPwzvXGhmzUiNjGx1bk5cWR91huU6kv5ezjzYYP7/PO76Xb7fzm2UlUnau+waosr7ycqo/77LPd4plB+ltP7+7Jof3L0fbozcun4rz6MMRjuUh+fbnqXOl2l7lCWiZf7XaMRhZlWYxITRqGWOfMtc3v9fyz7fIUYICF5IGH3m8OuY1wP+XRSloqpok2fh/4/bNSm2jxGeowOkmLRk7tZ6ukjzCo+rXzNNp5JWcfbTj1Y+23e+Vfr7bLpObHTd0ymR9HnHdxed1RWrIE6wPhPt6WO+94P3D3xpqs30qjC+cNQ/+Xz49k//27svm2+wN7+ptGycJEnX+u6UjcDqRo/IvOqGJb3hl6kRa70tjvdX9vdKHn0Ac+7X52JpdZGoNTDtbI7fKJv+bnhtz5V6/xuTiWh+9uzCAv/nz84kBzK3mbJyqn5bZe0TC7x512ff4t0gUT5mcnmvKq53WZszuFitC3zVHd+5u7cmavEbM7mUHVuWnldU2fX13IyaM9uXtrXdayJ8RqHb6R/Ejivhx9Ex4YBVmbsTzaSoveCn3mPI5fGTaDHTe/qvl090uuq4O0XD3ZcaKm5s48/w6rtG3UgeulF+2yoqChxcZZHXHWwdh1gfcrGYGZTVoGBY0nLbnMBCp4siD5hqzduis7nx7KWc0Dn65ensnhx/qk33Xn+Rvnf7hdjDZqIkhJg/L6KvnV5KNHD2XvQ5XE9eQx+XaDG5azHn4c7jrLuIWU9RUxSkaBKtXv6I9y6s8LnMizH7o9F6W2U3h9Icf6tOipv1qtnc4NWUv2uyPbnzaL8gQ70OssK44dXQdRy6dfnl2k5RvrBxybLKp/fiB3ckksR+D1wXj+zRu6tGDnuFv9pI6E+q74tyEtfuWd4//nj+/Kxq09Ob6IH6SZGoiry/Rpyh/uJKPf9cATlfuSlpnSOUc2SOeK14lYWHt9IUfv304ettiI2csT2f3lbXn4VUU06+JY9rayyL2udfu4/g6pRueMJS9JZ6OBAdICKI1AoXGgE4UBGIABGFg0A0gL0oK0wAAMwAAMwEAUDCAtgBoFqIu2e87PCBMGYAAGFs8A0oK0IC0wAAMwAAMwEAUDSAugRgEqI5zFj3AoA8oABmBg0QwgLUgL0gIDMAADMAADUTCAtABqFKAu2u45PyNMGIABGFg8A0gL0oK0wAAMwAAMwEAUDCAtgBoFqIxwFj/CoQwoAxiAgUUzgLQgLUgLDMAADMAADETBANICqFGAumi75/yMMGEABmBg8QwgLUgL0gIDMAADMAADUTCAtABqFKAywln8CIcyoAxgAAYWzQDSgrQgLTAAAzAAAzAQBQNIC6BGAeqi7Z7zM8KEARiAgcUzgLQgLUgLDMAADMAADETBANICqFGAyghn8SMcyoAygAEYWDQDSAvSgrTAAAzAAAzAQBQMIC2AGgWoi7Z7zs8IEwZgAAYWzwDSgrQgLTAAAzAAAzAQBQNIC6BGASojnMWPcCgDygAGYGDRDCAtSAvSAgMwAAMwAANRMIC0AGoUoC7a7jk/I0wYgAEYWDwDSAvSgrTAAAzAAAzAQBQMIC2AGgWojHAWP8KhDCgDGICBRTOAtCAtSAsMwAAMwAAMRMEA0gKoUYC6aLvn/IwwYQAGYGDxDCAtSAvSAgMwAAMwAANRMIC0AGoUoDLCWfwIhzKgDGAABhbNANKCtCAtMAADMAADMBAFA0gLoEYB6qLtnvMzwoQBGICBxTOAtCAtSAsMVDJw+fWB7N7ekN0nV5X70JAvviGnDCiDVWEAaaHDojOCgZSBH07k4bsbsvHBmVyZPPl6T9ZGIxn9YkdOfqrpGF4eyKbuNxrJ7mnNfua4zuuJ7Gbf3Xx00ROPF3JwK03P6N5JT8dse10R7G+VG/kUQXk59WY104u0AEGUDfrJvaxD6tRJamUvOsrRaFdO4EAmP53Izi80X9dk9ysTWbmSk3tvJTKy9tFZNStW5xeXtNgcFEypfNX9Nb5GK1/qjpd/Nm/BstM373NT56rrE3lTmTdIC3BUwrHM4UakpWqUdSI7psNt0AldPNrMO2ftiC8f35Wxfn9jX85N3fjhSO6OtRPflIOXFee1Oj+/Q7fPkXfOJo0dXptFY5pGWpAWEyEj0lLBtqkHvC5FX4G0AOJSgNhWkJCWigbWkocmnZAtFKlsnMv+hgrKWO4+vszZOPtoQzbefSjHL00Exju/dd75S0sH8bh1IBdJ3be+O03yaq6xLb/u/i3S0Hd7ZV1TE17cdHsM9J02jpfXP/K9YA1poWJEWTGQlqISOw1a207oyY4TadFjXR3vyNrtXTn4qpAW5xyhOmOdV6Xl4nhX7txcl72vK9LpHKPotJtFUfxjFt9vHMlBWtJ6b5Ub0uJzxf9T671Tj+eTX0jLAjJ9GUGILU1IS0UD8aJYELv++/PpQnq6W5KWTixYnV8SaTndTaaZGqXBWl/UTVpCedFheohIy3ReaC/JowUzgLQsuAA6dRCkWZCWUEc9kYklIY0EwJIcezpoKpeJpIzlzbcfypny6EvL1bFs63qVLKJhT0M1joYE1rs0uqakfkQqLb86zKatKsq377pvlRuRljnled9luGLHQ1pWrMCndkaR5AfSUtHAWtM9O08q9rHL+PJI7mZy0FwIbEnJ7ryyOr90TculHL2ra2PuytHlRIYgLZfHO/JWllf+up2Z6pVVBkbyZjpeUr4dpswCkthMMLn7bvbyalBX7Xq7wu+RlhUu/KWvaFZH2KzxrL9Ntf0xau6WWVJuCjl4q/V6kvEHNbc0+9drIjTvZHcZWWVlOvSLR3dk4909Oa664yg/ZtHBthKn5PtWRKVlp5ueqzi3H2k4//16PnXmsrMh+8977GRMXmr6x7tp5CrPm67nsa6rZb6419qkTiEtS9+WzsxTVw77/x7SMqDCHFzFsTrC9g1pk8Z22j7xScvZB+Oso70thxdNGgyr03/3SC6b1gczDWUWtFplZaSlOY9FB7tM0nL15+2StNzYuCv7bRYoN8lPKzpmIlPN865JGdfsY5WbL231abC44TlHrHNpwnlP+yAtPWVkfQWvaTQ4f6cKz/RQiKkLOfxVJmItRuwn72ff+cVe41F+3qG/nz1t1ur8XGkphKQ/8QzJ5Lnsv5Nex/afw7dln32UPiRvtHVoyZmVvmkLca+prroRnaYRslD5d9hmldtbdQ8PLF070kKb34G3Ekftj4G09JCJwNsevFnzDGkJ5fmZ7CYPgRvJqEXU5PwP5gFz6fqTJmVjvpN3dFbntxhpmYiRkjxNTt0+l4PNVGrcaM6ipcWs/cnEcTSSzT80uOvLubYQCw23WeXm5su07yMtTeoJ+0zjqP3nSEtflZ/jdIqYdK3USEugsltrI5rdapwdI5+eGMvuV4HjBtg2+X/7X7PfCrI6P1damh2vKwf29/Loj1lnY6c7X+y67q1HWbC0mLus7HUnZsrNTv91vTfTfK1/DgNpsdnj/fzqOdJyXY0Bx71WiTGdpk45dOskrc5qIHPy+gj+dApm3C5PLg7ldtZpNpMdE7WwJGcJpGWSi0l5PU+10NgcFNGOJlNZ7SIT4UY9T9doLNvvmfILTX+Fvz9rZ2kiZslPNLxocw6kZda85/tteCv2RVqQi2uVi+uqmEhLUYnTPL6S4/dMp7stx1f+53X/n8le8kOJDaeV8uiAJQfTpMUa0TcRgvA+0zpzI1Mj8de1mAXK5amj7tLS6Jby2vblUg63sjIb78rJT9mzbUYj2fh0HlNE1tRUi/VMKW9Iy3W1bRy3rq2aCNJS26jUZx5wLS5/epWW0HRCkIvuHVy4EzaSEX5tFUH64VDumCmGFutZDMMn98xdRw2E5+JYdrfWZW3T+lHFpZCWYl2Le/u2WaQbikBZZZosxDWdsRVFslnIr7Pic3vfae+f78tGVmZvfai3m1/J8W+zcmgtER3qYi6fIxn/9liupqXX+dzkk7LLLc+mHvHagUOHq+nfR1paZhhQTodqHnk0s7RYDXbzB3pZHZwRhGt8bSMt559u5LfntnqybcZ/MU1RjlI0Ks+8M6+YrssjLdOiJWW+imfPBL5rnbetGKbTO1aZZncPmahMcPrn673sAXPNFy2H8+9KTu5ldzONrOe+fL0nawlT7g9Who9Rzqs2+11+diefTtw5Dt9xVX08S1rmuQaH9jrKyHg1R+0ZRlqoBFFWgpmlJe98RuKOyttXoj4rZLdjWdM7452WU0PZ9doS917bUbf9hNz4pSUXuEDEKheoxtG5Cp4s2Q5WneUAACAASURBVBo759EpGxNt2ZWTVtN8FecKtnHm17z1gXZdmEFautXVNmXEvqE8RlqCFRpYQrAs07ZZpcV+NkaXyMQy5YV2smNnmqELv9bUxOiOHP7Q8hhWJxyMEOWRlvBUWLMoSSDSUll/rU619vkr5UhLsaDXz4diDUp5bUyb/LLExI6ymGuxpo02mvzopflei9er0938JwnSqak26dd9rdvr5/17SS2uc5nqKWlpy1h4f6SFChBlpGW2BsCKTGS/jTPb8cKVaz7HtEbMXWTD5j/7ZWYViNYLQYckLdbaEkca8nVDsz0A7upJ8RtGb907CawlqZg6sstqpvd9MBOQvZnStMg6xLnn01b1k89ICxVt5aRFbw02kYn2CxD7qXh9NRL2tay1eqJp6DqszqztlEFjaWkTLUnTmE/JjNp8d4ZIi7YJZvpwfFeOsqjT2YfZGpQNawFy2/ZD7xAyDwC8qXcMhcphIpOfTmTH3NF1c1fOepwmKm5zHklnZvLby0fS7Db5iutsm3/sv3Lttd9WIi1UgtWqBC8P5bbpNFp1gkvY6Nod23hbjqs6wBaM2xLkRBmmHWNo0jIppnDeev9ErvLrG0v7RauGnXM5+JW5S2tNdk/rF7/qFE66KHcka8GIjDlu81f7mKNZZOj5vqxnU5KxT6/6nSL/N+dpEXmFtExrjPl8OFLz05ns/dJ0GmO5/Wgez8K4rgZApxDW8rs/+us4zmTvZrbuZHxbDqf+QnN2fXmnPueFuBNrmqLVnVzmNl3r+/7al/wJw2O58UbKzbjz+o1LOf5tUV7N2LuSsw+s78z6eP8XB5awr8nuV/XSVNch5YuVR7NNldWdg8+uq+2I+7hIC1IyHCmpK8vLE9l92whLfyPXRTWs9roI9+6T2Rske2Fv42M3lpa+F+Ja0tG3tEwmcv7odj6VOBrfloNWT401ZeEKy/oHoXUsZl//1Y7OzCDaL47krpHR0QzHyeqY+Z2n0ajBc33q6iWfrUb722M5Iy09ZuaiOjDO6zf09v+X8uzRtqznU0JjWX//2PqVX3vfSN7bI+a6dRGd2dZfizaC17CDW5i0VJXZjGtasrxzplN+cVcO20rLT89kf+tGHhFrJyzZtekx8vK4IXf+tV2E8PKrPdmw+L89a8Rm8kweZr+o3eaHOWmnqlhlexs2kJbODTugtQFt3vte/fBMjj6+KxtvWCP78brsHGU/8Bdrub84lDvmmjqP/Buwm0+NaP5NX38xaSwtbRbTpulcyELcyUSuvtm3plMyjt640zza8uLQim7ckDufPgvcKdSgLJTVn+xI4Vhu/77BsV5fyNH760WkaLQmdx+3E55QvbWjT3c+uyRSEGtbEmm6kZZICy7UmKzitqvLS7m8PJez42M5/HRPdt7dlDXTqZvpgvGbcvvDY7no8Q6MheS1E+JvIBIzsm13TlOnRgYmLXZ0Yu3XR3Ku04tmemW8IXtf1XXWl/Ls0ztyw/D3xqY8rN2/qbjYa7JGsvbrQzl/Hfju6ws5+XTbFfabd+Xgm+5rWBLery7l7NHdfHHwqKfF3wupSzPWDdIc4G5OeYq0zCmjgbxfyIvfyrEiKaaT0Nfxm7K+tS37R8/kMtSwR1juZx+aRZlrsvPnuk6zr7zWH2HMpom0o/66ptO7Nmm5lOP3zePurR9onFp+XaeHXOFIhMWcy1kXdUM2Pz4rTTNenO7LtrV26sbWvjy77Ks8JjJ5fS6HvzYcjGT89nZ5yir/KQCtGzdkU4W9TR1o8iDAaTyYPOOVSFTPDCAtPWcoctJjA11TNvndC2+syfo764mg7H34UA6OTuTZxWX3MHzNORdftldy8sFt2X0yD2HJyvH1uRz8y7YcTVvL0ae0VHWaNx/Ks8bl001aimeYjGXjo7KUTLw1Knc+K6YbLx/fKaZi3tiUvePis37ZuZSzjzbyc43f3pMzT0r08817h3LW9snGmr8Xh3LbHgBY72/c3JS7Hx72K2KNy3Q+bUu/ZUWa+85PpIUKw0gABmZnoE9pcdbTaLRgLG/e3pOTVh1wN2nRx9M/vL0tB/9RJ4ZpNOZOaV3JuRxsbcj2o2elCEzfDbce7/LJrmxqJKeH5/NcR/o4JsJyHQwgLXRYs3dY5CF5CAMwAAMwMAcGkJY5ZPJ12CbHZBQDAzAAAzCwagwgLUgLowMYgAEYgAEYiIIBpAVQowB11UYTXC8jaBiAARgoM4C0IC1ICwzAAAzAAAxEwQDSAqhRgMqIozziIE/IExiAgVVjAGlBWpAWGIABGIABGIiCgaWSlufPnwt/5AEMwAAMwAAMDIuBviJCSyUtfV0UxyFkCgMwAAMwAAPDYwBpISQYRUiQxmd4jQ9lSpnCAAy0ZQBpQVqQFhiAARiAARiIggGkBVCjALWtjbM/IzgYgAEYGB4DSAvSgrTAAAzAAAzAQBQMIC2AGgWojJiGN2KiTClTGICBtgwgLUgL0gIDMAADMAADUTCAtABqFKC2tXH2ZwQHAzAAA8NjAGlBWpAWGIABGIABGIiCAaQFUKMAlRHT8EZMlCllCgMw0JYBpAVpQVpgAAZgAAZgIAoGkBZAjQLUtjbO/ozgYAAGYGB4DCAtSAvSAgMwAAMwAANRMIC0AGoUoDJiGt6IiTKlTGEABtoygLQgLUgLDMAADMAADETBANICqFGA2tbG2Z8RHAzAAAwMjwGkBWlBWmAABmAABmAgCgaQFkCNAlRGTMMbMVGmlCkMwEBbBpAWpAVpgQEYgAEYgIEoGEBaADUKUNvaOPszgoMBGICB4TEQnbT8/e9/l7/+9a9yfHws//Zv/8YfeQADMAADAQa0jdS2UttMOu/hdd6rWqZRSYtWPq2IL1++lNevX1MRiRLBAAzAQAUD2kZqW6ltJuKCtAxFcqKSFh01aCUcSuZzHTQkMAAD182Atpnadl73eTg+LM+DgaikRUcMRFioGPOoGJwDzobCgLaZ2nYO5Xq4jtWum1FJi65hAdjVBpbyp/xhoD0DtJ3t8wzOljPPkJaK+WCAXU5gKRfKBQbaM4C0tM8zOFvOPENakBaiVzAAAwNnAGlZzg4YMWpfLkjLwBsrKkX7SkGekWdDYwBpgemhMI20IC2MsmEABgbOANKCtCAtC6jkVDwq3lAqHtcBy/NkgLYT3ubJ23Wei0jLAuTrOguUY9M4wQAM+AwgLTDhMxHr/0gL0sLUAAzAwMAZQFqQllglxU830jLwxsovcP6n8YKB1WMAaVm9Mh9qPUdakBZG2TAAAwNnAGlBWoYiMUjLwBuroYDKddDowkB3BpCW7nkHd8uVd0gL0sIoGwZgYOAMIC3L1fEiQt3LA2kZeGNF5eheOcg78m4oDCAtsDwUlpEWpIVRNgzAwMAZQFqQFqRlAZWcikfFG0rF4zpgeZ4M0HbC2zx5u85zEWlZgHzVFejzz7fkwdNXMvnusWx9ciqvFpC+V08fyNbWlmx9/pwR+ALyv44PPqPz6cIA0gI3XbhZxu8gLYvqlFRKth7Lc//8P57Kg2T7Kzn9ZEsef9dzZUuOv5WeO0mDvvf/snT9+KqQJt03kRgrXXqsT07luZGc0nEQn2Ws9KSp5zrl1+El/B9pWb0yH2o9R1pMA5N1wK8mz+Xx1gM5/dGHXLdnURDznc6vacdfFcnQaEsiK7ko+Glp+b8nJ2ERsmQkeF16/SozxX4akUmiQvn+xWdDrTBcV0v2cjb43iLZQVrgb5H89XlupMVqVI0sJNMjwamRTDZmlRdPIsqRDo18hMRp1opnS0VxLeHzp9GXsuDYxzDpSYWufJzruAZzTl77bAg41rB5QlqGXb6rVH9XUlpUTtIO1utUVSaSdSQmqlAFuumkve9bAlQNUfbdoBRl50ukJjB11Oj4VWnW7SHhMPvXfWau1+Sb+/r4u/RzV3B0W5f8MenhtZoh8oa8accA0tIuv+BrefNr5aQlXWSadaZZxMPtbJsXVnqsNnKRRTemLLBNjjtln1aVKl/HYsvGY3k+LeITEKuw8FVJDdLSqpxmltLm7JKu1corpGW1ynvI9Xu1pCUkKVmH3lVcKuHQczmdfiYsocW3TmeV7ueuFempwvnXqmnM5ciNtCTi5KQ/FZMHT5+nC4Sf6oJhs8aHSEslB07Z9lSOHJO72loygLRQ94bSRq2OtGQddlAG6j5r2TikYGQd/OfPs7tvskiEEQQT4XCkIKtUSVquJ0KRRoa2ClEx6Qjd9WPf8pzsZyJKttzodWlakZahNAhcx+I6tz/+8Y+BO/ns6OiW6D5dyghpWVy5dikvvlNdXisiLZk0hCQhl5J0n6DU5PtUZ6QNWTKFYgQlW0diH/fVj69kktylZBqkQlLc7xbny4WjSjAC293o0XN5/Mljeay3UX/+OPAsGFtGJlKOtBRpsa81fZ/lbykNxXWVv1N3PD4jv1aTgTpx6SosyhLSspo8DbEdWQFpSTtjd6qmCuAmclP13XR7KhftOmtXSNp9tymUeo7H3xVi8vzzbE2LJ1dGdKqlpThGce4038x30+267XqupThvfVmwH/kTIwMhcZlFWDQPkBbqQox1IZTm4UuLs26jCbjdxSVdpNqxo+59isq6Vj12IieecDSdHnKiQiY6ZF71epGWUOVim8Vgy2jlquedLS6zCovmJdICi0OpU8OXlk6NZZvojFaGTHSmLrKtqDiZPNhTSP0BptdiRMqTFidv6j6z0m1EJ4/Q2NdvRMa8mvNa33fOyfb+ypm8HFpeqqz0ISyaL0gL9WMo9QNpqexEm3Xi+S3AtetlqipMeg59Zow7tVK1/6zb3WvK015ai2Kkwyy+NedN5UzlqrT2Jo/m6L66fmYxv5s0lIrJdRjmeO2DBaQFjvrgaBmOgbRUSks15E5n36VzzqaCkgfcdZKd6rTVQ+VKi7tv3Wd6vkJYzPeSfNA7pLLfHnpg7pb68ZWcZg/wm4+Mdc0PvmfKktdhs4C0DLt8V6n+Ii1NpcUWjS6ikpzHTCMtatrEEhMzzVMZZcmiLSpVyb4VaU4+8yMyWQNR91nTfGe/Tre4rlIjxrVO75CRlul5BEdx5BHSQqdIpwgDMDBwBpCWODpkxGl6OSEtA2+sqATTKwF5RB4NnQGkBcaHwjjSgrQwyoYBGBg4A0gL0oK0LKCSU/GoeEOpeFwHLM+TAdpOeJsnb9d5LiItC5Cv6yxQjk3jBAMw4DOAtMCEz0Ss/yMtSAtTAzAAAwNnAGlBWmKVFD/dSMvAGyu/wPmfxgsGVo8BpGX1ynyo9RxpQVoYZcMADAycAaQFaRmKxCAtA2+shgIq10GjCwPdGUBauucd3C1X3iEtSAujbBiAgYEzgLQsV8eLCHUvD6Rl4I0VlaN75SDvyLuhMIC0wPJQWEZakBZG2TAAAwNnAGlBWpCWBVRyKh4VbygVj+uA5XkyQNsJb/Pk7TrPRaRlAfJ1nQXKsWmcYAAGfAaQFpjwmYj1f6QFaWFqAAZgYOAMIC1IS6yS4qcbaRl4Y+UXOP/TeMHA6jGAtKxemQ+1niMtSAujbBiAgYEzgLQgLUORGKRl4I3VUEDlOmh0YaA7A0hL97yDu+XKu6ik5fj4WF6/fs2oENGCARiAgYYMaJupbSed73J1vpRHt/KISlr++te/ysuXL6l8DRsrKkW3SkG+kW9DYkDbTG07h3RNXMvq1tGopOXvf/97MmLQSkjEZXWhpcGi7GFgOgPaRmpbqVEWbTvJs+l5Rh4tfx5FJS0KlFY+HTVoRdR5Wv7IAxiAARgoM6BtpLaVCMvyd8TIUvMyik5aKNzmhUtekVcwAAMwAANDYgBpYX0IYWMYgAEYgAEYiIIBpAVQowB1SCMFroWRLwzAAAx0YwBpQVqQFhiAARiAARiIggGkBVCjAJVRSbdRCflGvsEADAyJAaQFaUFaYAAGYAAGYCAKBpAWQI0C1CGNFLgWRr4wAAMw0I0BpAVpQVpgAAZgAAZgIAoGkBZAjQJURiXdRiXkG/kGAzAwJAaQFqQFaYEBGIABGICBKBiITFqey+OtLdlq+ffg6auKwkiP9/g7Y+Kv5PSTLane3+zH65DMnWuBZxiAARiIg4EIpeWBnP7YT+Y+/3xLtj5/7grNd49la6vNOVR82uzfT9qpYOQjDMAADMDAqjEwWGl59fSBbG09lucVIb/k809O5VXg8/S700Qki/p8fiqnnzyW0ynnWzWwuF4aUxiAARiAgb4ZiFtafjyVByExSbZvSTHt44IzTWg0k5MoTJMIShKZMVNKr+RVT1Ggvgua47kMkB/kBwzAAAzEx0Dk0vJKXmXSUAhKui6lNO2TRVRSGamOwBQQZ8fZMkISKtxsTczTCnkKRHGK44eOxzbyBwZgAAZgAAaqGIhbWnIpsKdqAutUbGHRNSxZJGbqgl6dPqpb46KfZVNMKkMs4KWiVVU0tsMGDMAADMzOwECkRTPCREaaRFGsjEsEJrB+xRISQLPyKxdFtsEFDMAADMDAfBkYiLQUU0LNFtFamVy1LgZpce+qQlbIDxiAARiAgQUzEL+0ZFM9ztRMMqVTvRDXMeMqOanavuACc9JOWmhAYAAGYAAGVoiBqKWlNqqSiMu0qaI0QuMIjyl8pIWGwLDAKyzAAAzAwFIwEKm01MhGG7BqxCYRoornuBDtsKbX2uQ3+y5FpYdf+IUBGIiVgUilpQfgsmml4lZp95jBp+XS6dLpwgAMwAAMwMDCGIhQWtr/9pD/zJZ0WqlmzcsUoYnVUEm3K6bkB/kBAzAAA3ExEKG0BG5Pbmy95nku3u8N6feTqaJCiILrXBqfJy4IqLSUFwzAAAzAQAwMRCYtQBUDVKQRTmEABmAABq6DAaSF6MnC5iavA2iOSUMJAzAAA8NlAGlBWpAWGIABGIABGIiCAaQFUKMAlZHTcEdOlC1lCwMw0JQBpAVpQVpgAAZgAAZgIAoGkBZAjQLUphbOfozYYAAGYGC4DCAtSAvSAgMwAAMwAANRMIC0AGoUoDJyGu7IibKlbGEABpoygLQgLUgLDMAADMAADETBANICqFGA2tTC2Y8RGwzAAAwMlwGkBWlBWmAABmAABmAgCgaQFkCNAlRGTsMdOVG2lC0MwEBTBpAWpAVpgQEYgAEYgIEoGEBaADUKUJtaOPsxYoMBGICB4TKAtCAtSAsMwAAMwAAMRMEA0gKoUYDKyGm4IyfKlrKFARhoygDSgrQgLTAAAzAAAzAQBQNIC6BGAWpTC2c/RmwwAAMwMFwGkBakBWmBARiAARiAgSgYQFoANQpQGTkNd+RE2VK2MAADTRlAWpAWpAUGYAAGYAAGomAAaQHUKEBtauHsx4gNBmAABobLANKCtCAtMAADMAADMBAFA4OQlm+++Ub++Mc/yu9+9zvZ2tqS3/zmN7K/v59s08+w7mrrfvrv/1f+x/96Jv/l7hN5Y+0z+c+b/1v+23//92SbfkbeVecdeUPewAAMwMB8GYhaWn744YdcVFRWqv5UYnRf4Crg+j8X/y8XFZWVqj+VGN2XvCvyjrwgL2AABmBgMQxEKy0aWTGSolKi/5uoigrKkydPkm36mYm+6D6zg3YhB7dGsntaU2AvD2RzNJLRaCSbjy5K5zy5526/eLSZ7Kv7+3+15+kYztTIipEUlRL930RVVFAO//S3ZJt+ZqIvuk/nvDvdLV2Xf53B/28dyIV/jXqs0HZrP83f9Hi7cmJt75x+jtG97Mk78g4GYKBHBqKUFltYpomICkyb/as6tqIjNB1i8bp7mopM0fHWd5ZBabl34oHdQI46gGALyzQRUYFps39V3lVvP5Hd0RQB1Gu0JLDI4yz/VWA8KQqJYnUaauSzQ/5yHvITBmAABq6PgeikRSXERFhMZKUJILqvibi0+V5xbF8i7P/t91WFlXbQpU733okkkZY5SItKiImwmMhKcX1V6Z4kURgTcWnzvenHbigtKg9+hMX+336PaHjyW12u08uH75JHMAADy8VAdNJiFtvqQtu2MJmIi04Ztf2u7q9yUYzitcPdlIOXWqBNpKUo+GCkJTA1pILT5/SQWWyrC23t61cRMZ+Zhbi+nJiIi35uf7fx+7poSejaSxKn+V1EsBzRQ1q6lQmCR77BAAxExkBU0qLrVEy0pHFnaRWIRmmM9HSKtmjnaDpT7YTztRU9SIs5bp7edseclh+6TsVES+x9zXYTgbFf7ekjjdIYsfGFxj5e5ftEWgrpSPcLR1ocIXHyw0jiRFT8cqFDWmh4c06KwUEli+wLLzAQLQNRSYuJlExbx1LXWHU7Rtq5lqZ2sghBeU1Lsd5llEdjisZ0EZEWEymxRUTlw5aU0HtbUELHqMtr57MZIi2JxISiMbotsKbFKaeSDBbl4KSPRizaRoxyhGkYWB0GopIWnRLSSItGXLpCata2aMSl2zFCERB/mz11lMJU2fHOaU2LTgmplGhkxVy32RaSFbNNoytmfyM59jbz2dTXmSMtWaUMRVW8beFIzepU6qllgaDlTJNX1AsYiIuBqKTF3L6s0zxdQTMLeduta0mlxBnB5yN/nfKYLi1FerOojRUBCHey/jFnA8vcvqzTPCYtZpsRlNCrvYbFLOS1t5ljTX2dRVpUSvL8tqNY2a3jSEteplPLAWEhr2AABiJmYOWkRRt1c/dRpwY+m+bI11Mkhe+vzShHWvJz6fdv7crurWJ9RmUUpseFuEZQ2kqLikye9skkn06ytzV6n+VblXyUtltSZx9fp9b857Qk+ZevL0oXTOdrjyKunPZ18342aSf/yD8YGAYDUUnLTItos87LLObtcveRuUvIdLD5nURJh1xIyGRSLS0mqmJe84qUHCNdqOqvecn3maEDDi2iNdtCERazzb7TyCzatbfNlLYkguIvzq2pWE7EpfheIjKW5JTydoZ8m+n6OK8jvORlDduwAisw0IiBqKSl2yJat6GY5Rhp53iQPxE37xy96YlqadEpHyM3bnQmP9YkvTMmF6KeQA4tojVrVIyghF57W4ibXEc2zZZFRXzZqO3UjBg+Mk/ENWJYnkaz87L2mD3lLedw6xj5QX7AAAxcFwNRSYtZRNtuPYoLj4nWtF3Mm3SESWdb7iTLkRHTobrnLnWmKjsaITAdcvLMF09aTnetZ8O4x2sDhREUfz2KkZmQsNiLdvVcJjLjb2+TjmRfK2LiTrNVXZ8leL4gWhEqk45SPiMnjUYwJv94reKQ7bABA4tmICppsZ+z0mV6x9x91PrOIe0Y8zUTnrR4wpEWaEBaAp1rsm+y3f0tIluCtAPuI+piP2fFn97Rz3SbCo3+qZzYERZNp36uYqOfzQJtEl1JFtUWC5jNdJu+hq5Vv5PLjSctyfGsqSFNG9JCwzoLo3wXfmBgeRmISloUJHP3T9tbn02URr/X6cFy+WjdlRZbMArQfWnR7xRrMNL90uOMrKe8mu8nna51t0zeYedp6AaUuftH5aNNtMREafR7vsyYNNe+WpGV+gWyaUSlkBgzlWZdry0tFSKItFj5NSMzteXKsWcSePIWTmGgPQPRSYsWsllMqwLS5EFzZh1L0/2HDJJZTKsCYj9oruqa7emjJvtXHYft7SsneUaewQAMwIDLQJTSotEWW0R0jYtO/ajM6Gf6p9EU3cc82wVhSQteoy22iOh0kE79qMzoZ/qn0RTdRz9TuWkqOFQut3KRH+QHDMAADPTLQJTSYiBQOTELa1VKqv5UXHRf8z1eJ4mcmIW1RkxCryouKjLkWb8Vj/wkP2EABmCgPQNRS4sWuImqaJRFoy0qKPqnMqORltnWr7TP0JggNFEVjbL4C3E10tJp/QrrHBA8GIABGICBa2IgemmJSRJI67AlkPKlfGEABmDgehlAWq7JBgH3esElf8lfGIABGFg9BpAWpIUwJgzAAAzAAAxEwQDSAqhRgMqIavVGVJQ5ZQ4DMOAzgLQgLUgLDMAADMAADETBANICqFGA6ts2/zMCgwEYgIHVYwBpQVqQFhiAARiAARiIggGkBVCjAJUR1eqNqChzyhwGYMBnAGlBWpAWGIABGIABGIiCAaQFUKMA1bdt/mcEBgMwAAOrxwDSgrQgLTAAAzAAAzAQBQNIC6BGASojqtUbUVHmlDkMwIDPANKCtCAtMAADMAADMBAFA0gLoEYBqm/b/M8IDAZgAAZWjwGkBWlBWmAABmAABmAgCgaQFkCNAlRGVKs3oqLMKXMYgAGfAaQFaUFaYAAGYAAGYCAKBpAWQI0CVN+2+Z8RGAzAAAysHgNIC9KCtMAADMAADMBAFAwgLYAaBaiMqFZvREWZU+YwAAM+A0hLL9LyXB5vbcnj7/oF7NXTB7K1tSVbnz9HLHopp37Lx69M/E/+wgAMwMD1MhCXtHz3OO3EtSNP/h7L88lE8s49324+z17zTv+VnH7ifbb1QE5/1ExOxSM9rruPKyPV+4W+WykcP57KA3MNpesy50+vb/LjK3mVddrPP8/kKPl+cf0Pnj4PXJs5Tv9CRcW83opJ/pK/MAADMFBmIC5paTTaTsXEFQ1z4f5nKiCutLjfaxpBCe+XyFQuTBOZeHLinqsqjWZ79qrH0GPm0qLXZK4h2yf/zPtuRf6V0lmxHxWoWX6ST+QTDMAADFwPAxFJSzjCUe74fTGxM87/rJ20aJQjGE2pivDk2z2pmNjpSN9PO27pOkNi4klRfsxPTvNIjV2R0gjVAzl9+lgePD1NprgePH3FVBTSBgMwAAMwsJQMRCQttnzUvbeFwN/P/6ydtNgdvvu+YaQlrwR+Oux01nxWJSXONFM2pWTOpd+pkJb0GtLzbW1lU00/Ii1u2dplw3vyBgZgAAYWyUBc0uJ32nlnbHf09nsfLv+zsrTk0Yk8SuKuB0mjE20iLlaUJYmO+N99LM/967LOnaTHnmJKZCSVpOSzPA/K00/5tdj7GJnJXpPr+eRUTj/fEqIsPi/8v8jGiXPDHwzAgM9AXNLidbjFajl6BwAAG5lJREFUxdgyYr/3Czz9LO/MEzkwUhGKloS2+cfU/5vul303k5d8yseJhrjpT6TClpZEcB7I6Xe6kPexnCZ3GGXXkHzWJtJinSs03VSZ36E8YFvBI3lBXsAADMDAdTAQl7T4EYk8gmB1vtl6kUJMjJQoQPZ++r/Khvk8JB7utvZRFhNVMedIIc6PY9LvX1dFpCVZU2MExpYM/b4eq7W0UKmuo1JxTLiCARiAgethIC5pqRz52zJiv/czzf/MlxZXLlpHUCrTZ6fjuTz+5LE8/mRLHn+uC2BfpXcVGYHxxKoUaak7R5X85Me208F7GhUYgAEYgIG4GEBaTKQluN4kjZTk0ziJMKTiU0RyTDQl/Op+N32mzOPvCnl6/nm2piUXi+IzrUyV0mJHWozIEGlZytXuNIpxNYqUF+UFA8vLQFTSkk+r5NMnZv2G3dHb7/2M9z+zIi2hDj+4VsU/hn8O839gPxWNRE68z6oiJOY6zZRQ3X563NA16LZciEzaeKVRggEYgAEYiI+B+KTFdOBOpMGWAPu9XyDpZ26UJJ0SctaLmMhFjbS4xwhHWXSfItKi5zbTT9PTWHzPv4b0f/PMGOeOnyqpQVqIwORMh3mi8SZfYAAGYmBgJaWlJATZ1FBpe420lPf1gW8uJkZAqkXIRJSycyRyogKULhS2xUWjUfn/32VrZuiwkBYYgAEYgIEBMLBi0uKLRfp/OMqin7l3D6UWGorWNIm02OduLjQl882FxRzPpNGk64Homhn93qsf06fcmgfHlY41AIC5JsMBr7AAAzAwfAbikxazziN5fSzPsyhJdZRiq35NR77OxCps55helMO7u6e6kjQUk6opHec60196TuSqYqqnWrwmUvdZdfqt/EBuGKHBAAzAAAwsAQPRSUs+9bEEmUeHj9jAAAzAAAzAwPwYiEpaAGN+YJDX5DUMwAAMwMCyMYC0ELEh5AkDMAADMAADUTCAtABqFKAum+2THkagMAADMDB/BpAWpAVpgQEYgAEYgIEoGEBaADUKUBnRzH9EQ56T5zAAA8vGANKCtCAtMAADMAADMBAFA0gLoEYB6rLZPulhBAoDMAAD82cAaUFakBYYgAEYgAEYiIIBpAVQowCVEc38RzTkOXkOAzCwbAwgLUgL0gIDMAADMAADUTCAtABqFKAum+2THkagMAADMDB/BpAWpAVpgQEYgAEYgIEoGEBaADUKUBnRzH9EQ56T5zAAA8vGANKCtCAtMAADMAADMBAFA0gLoEYB6rLZPulhBAoDMAAD82cAaUFakBYYgAEYgAEYiIIBpAVQowCVEc38RzTkOXkOAzCwbAwgLUgL0gIDMAADMAADUTCAtABqFKAum+2THkagMAADMDB/BpAWpAVpgQEYgAEYgIEoGEBaADUKUBnRzH9EQ56T5zAAA8vGANKCtCAtMAADMAADMBAFA4OQlqf//n/lf/yvZ/Jf7j6RN9Y+k/+8+b/lv/33f0+26WfLZoqkp7/RyzfffCN//OMf5Xe/+51sbW3Jb37zG9nf30+26WfkdX95TV6SlzAAA4tmIGpp+T8X/y8XFZWVqj+VGN130Zmdn/90V0a3DuRiEGZ/IQe3RrL56GKu+fvDDz/koqKyUvWnEqP75nk/iDyn4RxUeWp7MNqVE9iknsLAVAailRaNrBhJUSnR/01URQXl8E9/S7bpZyb6ovssQ2N38Wiz1MnrttFoVPyVpOZEdu3PRyPZPZ3I5OWBbHrbneNYjeHJPev42XeSY0xS8XC/l+7rykj1fqHvXpeYaWTFSIpKif5voioqKE+ePEm26Wcm+qL7LEPZN01DykPDjqxDpxc8fi7TytqmHLycJkcpky4j077T1+ehc6d8KtPJ9d07ccq8qo6F6oXNc359obpm6mlSBuX6VZKRyv1C383qOB2ZU45N6xD79VXXlus4UUqLLSzTREQFps3+1wl6qdFUccgaVqeRzTuP9rA4x/EaO22c8wY4ExVbWorP9LxNIygV+81wDXVlYAvLNBFRgWmzf915TX7Yndn09w2lwyunSdaxpWXjM5B21s5nyf7tzpWy6H/H7fRdHvx06P8hcQjtdx3bKs6dc6ef+9fXJB36vQphS6TFOmZ+romkZWZ9pmXatFyC+xVlUc9lk2tiH/JwOAxEJy0qISbCYiIrTYDUfU3Epc33mhy76T7aUTgdgTZWU6RFRUM7qOBo0BtJajquS1rSTi48GpzWeTsdrN9Bt/hfJcREWExkpUne674m4tLme+6xK+SsIv1hKWjQcGSjeYcT5xxpZ+3kabDTqz9XVfpyfvwO2kmDOXaFOAT3Nd/p67Xq3IV0OJIeipIE5aT4vlv+JqppiYnmuxNpsT7TPHDKJU3vtLoS/NycYy752lf5cJwSP5RfLxGz6KTFLLbVhbY2FCoi5jOzENeXExNx0c/t787rvXYI2hkZEUkatUw8nAbWagzzfRsCn3c6gf2dc0QYaTGLbXWhbdsyMxEXnTJq+910/zlIS9LJFdG3cDrTzu+6pCV8zrQDSkWnnbg66QwwWXe++s/SfKiWu66d5nVJS016HLkx+xFpqS9/k0+8rlo+RSUtuk7FREvsgjLbTQTGfrWnjzRKY8TGFxr7eNf13khLsg5FZUUbq0RavIbSGRWaUHXaSBcjMbPdja7MIi3FsYuOyekUTKdau4am+K4er69OS9epmGhJl/LRKI2Rnm7RluuVFiMETn4HO/mUAydfg51efWNuzmfK3Dle8Lyh4wXSkn+37rPQsdpu8+pDg2iEf80myplOc5n6pMc17700+dEnzXdz3sq6YUdfUoZMnjd6NcfP89VLE9s7DkLIxy7t6DJ8JyppMZESW0RUPmxJCb23BSV0jHkVhDaaTqekDZ0jL90qUtIYZxEb+71/XRpp8RvKtLMKdcihbaH0Nd0v9N3m20ykZNo6Fv+a7f9nO0a760zKoVGHU3S+DhuVnVFABjpLS9GhFmwU2+y8C75POvGKDj5b79JNhppwkeZDnmeW6OfbKvPQP74tKvZ7bz/rHHk9MmUcKoPQtlCamu4X+i7bkJYVYyAqadEpIZUSjayYRtRsC8mK2abRFbO/kRx7m/ms7jXphFpEGEyjZjegeoz0/7QDNPs0a9jTRtp8Z2SNBm1R8dNpn3+m6aGkYS1LT5Ge6s+aXZ/XQXgVUaeENNKiEZe6cqr7zKxt0YhL3X59fJZIQCaS4eNZDNw7aHHbeMqBk6cdOr2Uk4CgWB2zcw6vPJJrqj1vIJ2hY3Telh7f5tvkcy5gRiiyc/h1ozrSYrNs5VGSN9b/ev3mHKG8cLZZ5d22HTHn6JxX9XXL5Buv5FMMDEQlLeb2ZZ3mMZlrthlBCb3aa1jMQl57mznWdb7mDWnWYCUdgjZq2rFZHYUvAaFG2U9nSVoqOstp0uJ2Uu0iC36a+v7f3L6s0zxdj20W8nZf19K0UavJu6QjyzrFvJxq9vc7qowVp6yczrFZGiulJT9ftRSY/E+YrupQA+ksSUODztu5zjxteo3T0zf9Gk1e6bFMxMh+bz7PXqdJi58XHcrF5C2vXt47Zc9nq8zHSkiLioxdyEZs7G3zeG+kQRtTR1q0QmqD6DR6aUdW3WgXFTdpnLMO0H7vX5M5f7rdPn7aAfjCpP/70pR0VA06m9B3/fS0+b8PadHzmbuP2py79b5TOuxymbaQlqQjNB1sxkBl56jH9fbNGv/mHXrBmZsPU6QhyYPwud3jVB1/2vYp52/VydmiYr/30lAjLWl+2hEa896KzJh63rD+lJ7x0uqavLTzXacP6IdB8ngR+RiVtIQW0ZptRkRCr/adRmbRrr1tXhmvHb52WNrAlaTFuZsncHtl1hHaYmE6P1tU7Pf+dVVKS7CDCXek7jGqK23T/fw0Vv0/2yLaNJ1mMW+Xu4+q0hXarteeTxs06izCed342BXSknakYXFIP/M61EZpTfNy6vcr0hS6pm7b2ktLUi62MOSDBFtU7Pce3zXSkhw7j5xl3wvlgX+Mqjxvul/V99mOpAyUgaikJbSI1qxRCcmK2bYcC3GLUa82+GVpsZ/rEOjEnEYs/byLtNjSo+/1GEkHlDfgpqEOpGFS8bwYuyOw3vtRmm6dU5qe2RbR9neMadeQdoxhUaj+bjivS/snDATuyAp0jqlUBPbNGrKp0lHX4FWlw/pOmCnDVh+v3aQlZ1LzLGfeFhX7vZfO7LqdOpQcI02LqY95uQXKpW4q2DluUo+6S2WeBqtM2OaVJ3kTpdhFJS1GUPz1KEZmjKTYr/aiXa20JjLjb7/2Cu1IR1Z5tFHzRmemsyka1Gxf5/vdpSVvtPMKW9X4hztS7ZTLxyg3Bk33a5rvZhHtLOtRTLRmlsW81elN89FeIF29r59f4bx2v5/uU+JCy9HpHLP9ptxu3l1aqnixrylLg8e2ez32/l3eN0mHe1yHyc7SUhaJyrx0yiVLi1OP3fQ5+dN0v7we1xyLfaLsnB0eKMO8DKOSFvs5K/70jn6m21Ro9E/lxI6wKAD6uQqNfjZvIJKGzW/EHWkpOpvNe7vp7wnZ+zuNWLqvGdnZx7bfN7nGZP98xGk3fOk5fEFJIwlmvr7+1f9uk/RU7WM/Z6XL9I65+6jvO4eS/DPRJbu8WjUy4bwu8sKwUe4wk32yznE3v6W9Yj8rTWm6p+9XpMFMWTaQ1iQ91VEe55hWmtptX4C0BNOapsPURecaKqWlvt4UEZeW5RNMn12nee+UD/k1936wj/yPSlr0gs3dPyofbaIlJkqj3/Nlpo+MrD+GNmzWlEHWqGvjlHTs2f+lTt5u/BNpcRu73VPTmbnbi0ZPt1vnLVVSTZffMKaNcHqM8ned0WrpeEWj2HS/+nwrjqf7mbt/2t76bKI0+r1uD5Zz0+GISlD43P2nX+MUaVEO6s5j8RTsPAPl1F5aPIatYzr5kQlciWVr/+n50ST/Uk7bnKck3JqnVt659caqUzUyqtfup8HJD/+7zuCj5jqb7td7vtakiXNF2cn3U9+Wh4vopEULwCymVQGxHzRXVTj29FGT/auOs9Dt2ojVdVwr0qCYxbQqIE0eNGfWwjTdf6FlvCJluKg8VmlpKnWLSiPnXZ7OkbJYzrKIUlo02mKLiE4H6dSPyox+pn8aTdF99DOVm6aCA6jLCaopF4222CKia1x06kdlRj/TP42m6D7mNmmEZbnL1JQtr5QTDMDANAailBZzUSonZmGtEZPQq4qL7mu+x2v8FUPlxCysVSmp+lNx0X0p8/jLnDKkDGEABqKWFgXYRFU0yuIvxNVIy/zXrwDVvBoWE1XRKItGW1RQ9E9lRiMtfaxfmde1cB7qDQzAAAxMZyB6aaGQpxcyeUQewQAMwAAMDIEBpIXFj0ydwAAMwAAMwEAUDCAtgBoFqEMYIXANjHRhAAZgYDYGkBakBWmBARiAARiAgSgYQFoANQpQGZ3MNjoh/8g/GICBITCAtCAtSAsMwAAMwAAMRMEA0gKoUYA6hBEC18BIFwZgAAZmYwBpQVqQFhiAARiAARiIggGkBVCjAJXRyWyjE/KP/IMBGBgCA0gL0oK0wAAMwAAMwEAUDCAtgBoFqEMYIXANjHRhAAZgYDYGkBakBWmBARiAARiAgSgYQFoANQpQGZ3MNjoh/8g/GICBITCAtCAtSAsMwAAMwAAMRMEA0gKoUYA6hBEC18BIFwZgAAZmYwBpQVqQFhiAARiAARiIggGkBVCjAJXRyWyjE/KP/IMBGBgCA0gL0oK0wAAMwAAMwEAUDCAtgBoFqEMYIXANjHRhAAZgYDYGkBakBWmBARiAARiAgSgYQFoANQpQGZ3MNjoh/8g/GICBITCAtCAtSAsMwAAMwAAMRMEA0gKoUYA6hBEC18BIFwZgAAZmYwBpQVqQFhiAARiAARiIggGkBVCjAJXRyWyjE/KP/IMBGBgCA0gL0oK0wAAMwAAMwEAUDCAtgBoFqEMYIXANjHRhAAZgYDYGkBakBWmBARiAARiAgSgYQFomE/n52y/k/tPvoyiwa7P0f3wrXzz9Xn7+9kv59h+zmfC1pZFGZbUZpfwpfxhYeQYGIy3fP70v9+9P+QuJycWXwe998e3PSwTHz/Ltn76U7zOxuC4p+P7pF/LtP76XL0P5RGOxRDwglddVBzgubMHAcjMwIGnRDlcz+2f59um38rN2snYnb783HXAiLF/K9+b/5PV7+fK+v20ijaQokabyd00l0IjOlxcdgbj4UlSkUrHIjqHprxAMPZcvXvXXYPKvIn16rj9l+erkV3j/ma61wfFNnvIazn/yhXyBARgYIgMDkpYpURYVCquDT6aE7t8PduxdxSI5pnWOyeR7+dLq6Ks7chWlKel3jptVxpbSUgmwCp2VztB+Kjy+BIX2S675/hfy5dMv5cunTLuF84jGlHyBARiAgS4MDEZa7ItXOajrYG25cDrjGgmwj6/vy+dQ8fCjFU2lZQq8oSiRRiNq0ltOX/U5NA/qRS10bdXHS6Jdf2oqOXXH4TOfO/6HCRiAgVVmYDDSUjf1oR1yIirBaIKuF7kvX/zpi9bTH4UYZccorYOJQFqaTPs02cea0jESZF5XuYJx7XQwMAADMNAfA4ORFhsKN8qQTr0UglHOvGqhKe9rzmOfIxGm0PRN4+mh6vMk57u2SEuzCIorHypofkRpSvotoTH5xyt5BgMwAAMw0JaBpZOWV69eyV/+8hc5OjqSL774ovQXvECNBExbE5J97stLIhxV3w1GZlLITEeeCE9QWLKFwNYxdF9/GsYcJ3hdprPvIC16XP9a3XOkMnc/sOi4vJ+3uFjTM/V70ytjqHzZVmaePCFPYAAGYmNA+3Dty7VPd/uU6X1D3f5LJS16cXqhf/vb3+T169edLzQRiWmdatLx6uLXiqiBfm4Jh5OJTTttb81JSVqaTrvo+arEyIiN8zotgpIKSyJQybVU5EFw7U4GnHdtTv44aZkNUI5L/sEADMBAfAxoH659ufbpfYrLUkmLWpleZCdAk863/g4cE+VIpCYTEucWYruz1eMFpaVq/YoPVXkaxZGWJDrkRTDs89vvW0pLEj2qkpyQpGR5Z/KnyP/yNRSf6W3g1bJj78d7nw3+hwkYgIHVYED7dO3b+yrvpZIWNbIuEZY0svKFfPtt9XNLqqZhKjvekLRknbt963RVQYSmZ4y0JFJhR4LMcaumqXR7lYRYcpMet3rf0nmt7ybPtLnv3UXkRVPy49vpDIrdalTGqrJnO+UPAzAAAykD2qdr395XfiyVtOic3UwXlkQvqqMt5UjClIfG2R1ycuxmkQWVk9B6klSupq01aVnZ7WuuFBtrOsgWFf99Ik9p9CckKOX8S6NO5e0tr8FPB//PVg/IP/IPBmBgiRiYuW+3rmVY0mJdWFP5aRVp6XD8pulgP0QHBmAABmBgiAwgLcgDowgYgAEYgAEYiIIBpAVQowB1iCMGromRMAzAAAy0YwBpQVqQFhiAARiAARiIggGkBVCjAJXRSLvRCPlFfsEADAyRAaQFaUFaYAAGYAAGYCAKBpAWQI0C1CGOGLgmRsIwAAMw0I4BpAVpQVpgAAZgAAZgIAoGkBZAjQJURiPtRiPkF/kFAzAwRAaQFqQFaYEBGIABGICBKBhAWgA1ClCHOGLgmhgJwwAMwEA7BpAWpAVpgQEYgAEYgIEoGEBaADUKUBmNtBuNkF/kFwzAwBAZQFqQFqQFBmAABmAABqJgAGkB1ChAHeKIgWtiJAwDMAAD7RhAWpAWpAUGYAAGYAAGomAAaWkL6sWXcv/+l/J92+8F9v/52y/k/v37xd/T76OAhpFBu5EB+UV+wQAMwEA/DCAtAZmohasnaUmF5Qv59h+mIL+XL1VgEBfErS2T7A8zMAADK8IA0tK2oHuRlp/l2z/dly++/dmtaMmxbZExQsNrrUi2LUP2d7kjP8gPGICBSBhAWgIF9f1Ta8rmvicXRlqS12K/Ly88sfjHt/KFPfVz/76U9vHPnXwHaUFQPJZ8TvifDgYGYGBFGUBavIJPhOVP38rPZnsmH7lwGFmx9kklx1rn4n9nMpHydFC5Y0r3sY5j0sArDRQMwAAMwAAMCNLiQaDTNrXrSkJTOJ6kJPJhSU0SOfD2KUcTWNNSzpOy2LEPeQIDMAADq8sA0uJJSxrt0GmfioiHmR6yv1cjJMXx0qmkPGJjf3+SrnGpPKez7+rCSkNF2cMADMDAajOAtISEwEwBmTUpdtSkibRkEmNuZ05EpVJsEBYaodVuhCh/yh8GYKApA0hLSFrsbUZgzK3IDaSltC5GjxeUFoSlKajsR6MGAzAAAzCAtNiCUvHeWaMyVVrCtzObaaJieghhoQGiAYIBGIABGGjDANLiiUp5IW66QDZ/pspUaZlI1d1EOl1kjlPax0tHm0JkXyo9DMAADMDAKjCAtJRkwURAimewOHcTNZCWSb6w1hxDn71i3R3krXkxa1/MaxGNoRKuQiXkGuEcBmAABpoxgLSUpKVZxgEY+QQDMAADMAAD82UAaUFaeGATDMAADMAADETBANICqFGAymhmvqMZ8pv8hgEYWEYGkBakBWmBARiAARiAgSgYQFoANQpQl9H4SRMjURiAARiYLwNIC9KCtMAADMAADMBAFAwgLYAaBaiMZuY7miG/yW8YgIFlZABpQVqQFhiAARiAARiIggGkBVCjAHUZjZ80MRKFARiAgfkygLQgLUgLDMAADMAADETBANICqFGAymhmvqMZ8pv8hgEYWEYGkBakBWmBARiAARiAgSgYQFoANQpQl9H4SRMjURiAARiYLwNIC9KCtMAADMAADMBAFAwgLYAaBaiMZuY7miG/yW8YgIFlZABpQVqQFhiAARiAARiIggGkBVCjAHUZjZ80MRKFARiAgfkygLQgLUgLDMAADMAADETBANICqFGAymhmvqMZ8pv8hgEYWEYGBistR0dH8vr1azpkpAwGYAAGYAAGBsCA9unat/clU//U14H6OM5f/vIX+dvf/tbbxfWRJo7ByAUGYAAGYAAGujGgfbr27X3l31JJy6tXrxIj04sk4tINkL7A4DjkPwzAAAzAQFcGtA/XvlyjLNq3dz2O/72lkhZNnF6cWpleqM6D8UcewAAMwAAMwEBcDGgfrn15n8KijrB00uJbFf9j+jAAAzAAAzAAA8oA0jKAhU5UZiozDMAADMDAKjCAtCAtvc01rkKF4RrpGGAABmBgcQwgLUgL0gIDMAADMAADUTCAtABqFKAyslncyIa8J+9hAAaWhQGkBWlBWmAABmAABmAgCgaQFkCNAtRlsXzSwYgTBmAABhbHANKCtCAtMAADMAADMBAFA0gLoEYBKiObxY1syHvyHgZgYFkYQFqQFqQFBmAABmAABqJgAGkB1ChAXRbLJx2MOGEABmBgcQwgLUgL0gIDMAADMAADUTDw/wFJ/N4dG+jQNAAAAABJRU5ErkJggg==;" parent="1" vertex="1">
          <mxGeometry x="10" y="190" width="128.54" height="99" as="geometry" />
        </mxCell>
        <mxCell id="WB0BFBL55_z6dredpq6V-13" style="edgeStyle=orthogonalEdgeStyle;rounded=0;orthogonalLoop=1;jettySize=auto;html=1;entryX=0;entryY=0.75;entryDx=0;entryDy=0;entryPerimeter=0;" parent="1" source="WB0BFBL55_z6dredpq6V-14" target="WB0BFBL55_z6dredpq6V-17" edge="1">
          <mxGeometry relative="1" as="geometry" />
        </mxCell>
        <mxCell id="WB0BFBL55_z6dredpq6V-19" style="edgeStyle=orthogonalEdgeStyle;rounded=0;orthogonalLoop=1;jettySize=auto;html=1;exitX=0.145;exitY=0.855;exitDx=0;exitDy=0;exitPerimeter=0;entryX=0.5;entryY=0;entryDx=0;entryDy=0;" parent="1" source="WB0BFBL55_z6dredpq6V-14" target="WB0BFBL55_z6dredpq6V-18" edge="1">
          <mxGeometry relative="1" as="geometry" />
        </mxCell>
        <mxCell id="WB0BFBL55_z6dredpq6V-21" style="edgeStyle=orthogonalEdgeStyle;rounded=0;orthogonalLoop=1;jettySize=auto;html=1;exitX=0.855;exitY=0.855;exitDx=0;exitDy=0;exitPerimeter=0;entryX=0.5;entryY=0;entryDx=0;entryDy=0;entryPerimeter=0;" parent="1" source="WB0BFBL55_z6dredpq6V-14" target="WB0BFBL55_z6dredpq6V-20" edge="1">
          <mxGeometry relative="1" as="geometry" />
        </mxCell>
        <mxCell id="WB0BFBL55_z6dredpq6V-14" value="" style="outlineConnect=0;dashed=0;verticalLabelPosition=bottom;verticalAlign=top;align=center;html=1;shape=mxgraph.aws3.lambda_function;fillColor=#F58534;gradientColor=none;" parent="1" vertex="1">
          <mxGeometry x="300" y="203.5" width="69" height="72" as="geometry" />
        </mxCell>
        <mxCell id="WB0BFBL55_z6dredpq6V-15" value="/api/sslsetting/request" style="rounded=0;whiteSpace=wrap;html=1;" parent="1" vertex="1">
          <mxGeometry x="150" y="210" width="130" height="20" as="geometry" />
        </mxCell>
        <mxCell id="WB0BFBL55_z6dredpq6V-16" value="cst-sslsettings-request" style="whiteSpace=wrap;html=1;" parent="1" vertex="1">
          <mxGeometry x="270" y="270" width="130" height="20" as="geometry" />
        </mxCell>
        <mxCell id="WB0BFBL55_z6dredpq6V-34" style="edgeStyle=orthogonalEdgeStyle;rounded=0;orthogonalLoop=1;jettySize=auto;html=1;exitX=0;exitY=0.25;exitDx=0;exitDy=0;exitPerimeter=0;entryX=1;entryY=0.5;entryDx=0;entryDy=0;entryPerimeter=0;" parent="1" source="WB0BFBL55_z6dredpq6V-17" target="WB0BFBL55_z6dredpq6V-14" edge="1">
          <mxGeometry relative="1" as="geometry" />
        </mxCell>
        <mxCell id="WB0BFBL55_z6dredpq6V-17" value="" style="sketch=0;points=[[0,0,0],[0.25,0,0],[0.5,0,0],[0.75,0,0],[1,0,0],[0,1,0],[0.25,1,0],[0.5,1,0],[0.75,1,0],[1,1,0],[0,0.25,0],[0,0.5,0],[0,0.75,0],[1,0.25,0],[1,0.5,0],[1,0.75,0]];outlineConnect=0;fontColor=#232F3E;gradientColor=#4D72F3;gradientDirection=north;fillColor=#3334B9;strokeColor=#ffffff;dashed=0;verticalLabelPosition=bottom;verticalAlign=top;align=center;html=1;fontSize=12;fontStyle=0;aspect=fixed;shape=mxgraph.aws4.resourceIcon;resIcon=mxgraph.aws4.dynamodb;" parent="1" vertex="1">
          <mxGeometry x="460" y="200.5" width="78" height="78" as="geometry" />
        </mxCell>
        <mxCell id="WB0BFBL55_z6dredpq6V-18" value="" style="shape=image;html=1;verticalAlign=top;verticalLabelPosition=bottom;labelBackgroundColor=#ffffff;imageAspect=0;aspect=fixed;image=https://cdn2.iconfinder.com/data/icons/free-simple-line-mix/48/5-Email-128.png" parent="1" vertex="1">
          <mxGeometry x="212" y="330" width="68" height="68" as="geometry" />
        </mxCell>
        <mxCell id="WB0BFBL55_z6dredpq6V-23" style="edgeStyle=orthogonalEdgeStyle;rounded=0;orthogonalLoop=1;jettySize=auto;html=1;entryX=0;entryY=0.5;entryDx=0;entryDy=0;entryPerimeter=0;" parent="1" source="WB0BFBL55_z6dredpq6V-20" target="WB0BFBL55_z6dredpq6V-22" edge="1">
          <mxGeometry relative="1" as="geometry" />
        </mxCell>
        <mxCell id="WB0BFBL55_z6dredpq6V-20" value="" style="sketch=0;points=[[0,0,0],[0.25,0,0],[0.5,0,0],[0.75,0,0],[1,0,0],[0,1,0],[0.25,1,0],[0.5,1,0],[0.75,1,0],[1,1,0],[0,0.25,0],[0,0.5,0],[0,0.75,0],[1,0.25,0],[1,0.5,0],[1,0.75,0]];outlineConnect=0;fontColor=#232F3E;gradientColor=#FF4F8B;gradientDirection=north;fillColor=#BC1356;strokeColor=#ffffff;dashed=0;verticalLabelPosition=bottom;verticalAlign=top;align=center;html=1;fontSize=12;fontStyle=0;aspect=fixed;shape=mxgraph.aws4.resourceIcon;resIcon=mxgraph.aws4.sns;" parent="1" vertex="1">
          <mxGeometry x="410" y="330" width="78" height="78" as="geometry" />
        </mxCell>
        <mxCell id="WB0BFBL55_z6dredpq6V-26" style="edgeStyle=orthogonalEdgeStyle;rounded=0;orthogonalLoop=1;jettySize=auto;html=1;exitX=0.145;exitY=0.855;exitDx=0;exitDy=0;exitPerimeter=0;entryX=1;entryY=0.5;entryDx=0;entryDy=0;entryPerimeter=0;" parent="1" source="WB0BFBL55_z6dredpq6V-22" target="WB0BFBL55_z6dredpq6V-25" edge="1">
          <mxGeometry relative="1" as="geometry" />
        </mxCell>
        <mxCell id="WB0BFBL55_z6dredpq6V-33" style="edgeStyle=orthogonalEdgeStyle;rounded=0;orthogonalLoop=1;jettySize=auto;html=1;exitX=1;exitY=0.5;exitDx=0;exitDy=0;exitPerimeter=0;entryX=0;entryY=0.75;entryDx=0;entryDy=0;entryPerimeter=0;" parent="1" source="WB0BFBL55_z6dredpq6V-22" target="WB0BFBL55_z6dredpq6V-27" edge="1">
          <mxGeometry relative="1" as="geometry" />
        </mxCell>
        <mxCell id="WB0BFBL55_z6dredpq6V-22" value="" style="outlineConnect=0;dashed=0;verticalLabelPosition=bottom;verticalAlign=top;align=center;html=1;shape=mxgraph.aws3.lambda_function;fillColor=#F58534;gradientColor=none;" parent="1" vertex="1">
          <mxGeometry x="670" y="333" width="69" height="72" as="geometry" />
        </mxCell>
        <mxCell id="WB0BFBL55_z6dredpq6V-24" value="cst-sslsetting-sorting-from-sns" style="whiteSpace=wrap;html=1;" parent="1" vertex="1">
          <mxGeometry x="490" y="340" width="170" height="20" as="geometry" />
        </mxCell>
        <mxCell id="WB0BFBL55_z6dredpq6V-41" style="edgeStyle=orthogonalEdgeStyle;rounded=0;orthogonalLoop=1;jettySize=auto;html=1;exitX=1;exitY=0.5;exitDx=0;exitDy=0;exitPerimeter=0;entryX=0;entryY=0.5;entryDx=0;entryDy=0;entryPerimeter=0;" parent="1" source="WB0BFBL55_z6dredpq6V-25" target="WB0BFBL55_z6dredpq6V-38" edge="1">
          <mxGeometry relative="1" as="geometry" />
        </mxCell>
        <mxCell id="WB0BFBL55_z6dredpq6V-25" value="" style="sketch=0;points=[[0,0,0],[0.25,0,0],[0.5,0,0],[0.75,0,0],[1,0,0],[0,1,0],[0.25,1,0],[0.5,1,0],[0.75,1,0],[1,1,0],[0,0.25,0],[0,0.5,0],[0,0.75,0],[1,0.25,0],[1,0.5,0],[1,0.75,0]];outlineConnect=0;fontColor=#232F3E;gradientColor=#FF4F8B;gradientDirection=north;fillColor=#BC1356;strokeColor=#ffffff;dashed=0;verticalLabelPosition=bottom;verticalAlign=top;align=center;html=1;fontSize=12;fontStyle=0;aspect=fixed;shape=mxgraph.aws4.resourceIcon;resIcon=mxgraph.aws4.sns;" parent="1" vertex="1">
          <mxGeometry x="410" y="460" width="78" height="78" as="geometry" />
        </mxCell>
        <mxCell id="WB0BFBL55_z6dredpq6V-31" style="edgeStyle=orthogonalEdgeStyle;rounded=0;orthogonalLoop=1;jettySize=auto;html=1;exitX=0;exitY=0.25;exitDx=0;exitDy=0;exitPerimeter=0;entryX=1;entryY=0.5;entryDx=0;entryDy=0;entryPerimeter=0;" parent="1" source="WB0BFBL55_z6dredpq6V-27" target="WB0BFBL55_z6dredpq6V-22" edge="1">
          <mxGeometry relative="1" as="geometry" />
        </mxCell>
        <mxCell id="WB0BFBL55_z6dredpq6V-27" value="" style="sketch=0;points=[[0,0,0],[0.25,0,0],[0.5,0,0],[0.75,0,0],[1,0,0],[0,1,0],[0.25,1,0],[0.5,1,0],[0.75,1,0],[1,1,0],[0,0.25,0],[0,0.5,0],[0,0.75,0],[1,0.25,0],[1,0.5,0],[1,0.75,0]];outlineConnect=0;fontColor=#232F3E;gradientColor=#4D72F3;gradientDirection=north;fillColor=#3334B9;strokeColor=#ffffff;dashed=0;verticalLabelPosition=bottom;verticalAlign=top;align=center;html=1;fontSize=12;fontStyle=0;aspect=fixed;shape=mxgraph.aws4.resourceIcon;resIcon=mxgraph.aws4.dynamodb;" parent="1" vertex="1">
          <mxGeometry x="780" y="340" width="58" height="58" as="geometry" />
        </mxCell>
        <mxCell id="WB0BFBL55_z6dredpq6V-37" style="edgeStyle=orthogonalEdgeStyle;rounded=0;orthogonalLoop=1;jettySize=auto;html=1;exitX=1;exitY=0.5;exitDx=0;exitDy=0;exitPerimeter=0;entryX=0;entryY=0.75;entryDx=0;entryDy=0;entryPerimeter=0;" parent="1" source="WB0BFBL55_z6dredpq6V-38" target="WB0BFBL55_z6dredpq6V-40" edge="1">
          <mxGeometry relative="1" as="geometry" />
        </mxCell>
        <mxCell id="WB0BFBL55_z6dredpq6V-49" style="edgeStyle=orthogonalEdgeStyle;rounded=0;orthogonalLoop=1;jettySize=auto;html=1;exitX=0.145;exitY=0.855;exitDx=0;exitDy=0;exitPerimeter=0;entryX=1;entryY=0.5;entryDx=0;entryDy=0;entryPerimeter=0;" parent="1" source="WB0BFBL55_z6dredpq6V-38" target="WB0BFBL55_z6dredpq6V-43" edge="1">
          <mxGeometry relative="1" as="geometry" />
        </mxCell>
        <mxCell id="WB0BFBL55_z6dredpq6V-38" value="" style="outlineConnect=0;dashed=0;verticalLabelPosition=bottom;verticalAlign=top;align=center;html=1;shape=mxgraph.aws3.lambda_function;fillColor=#F58534;gradientColor=none;" parent="1" vertex="1">
          <mxGeometry x="660" y="463" width="69" height="72" as="geometry" />
        </mxCell>
        <mxCell id="WB0BFBL55_z6dredpq6V-39" style="edgeStyle=orthogonalEdgeStyle;rounded=0;orthogonalLoop=1;jettySize=auto;html=1;exitX=0;exitY=0.25;exitDx=0;exitDy=0;exitPerimeter=0;entryX=1;entryY=0.5;entryDx=0;entryDy=0;entryPerimeter=0;" parent="1" source="WB0BFBL55_z6dredpq6V-40" target="WB0BFBL55_z6dredpq6V-38" edge="1">
          <mxGeometry relative="1" as="geometry" />
        </mxCell>
        <mxCell id="WB0BFBL55_z6dredpq6V-40" value="" style="sketch=0;points=[[0,0,0],[0.25,0,0],[0.5,0,0],[0.75,0,0],[1,0,0],[0,1,0],[0.25,1,0],[0.5,1,0],[0.75,1,0],[1,1,0],[0,0.25,0],[0,0.5,0],[0,0.75,0],[1,0.25,0],[1,0.5,0],[1,0.75,0]];outlineConnect=0;fontColor=#232F3E;gradientColor=#4D72F3;gradientDirection=north;fillColor=#3334B9;strokeColor=#ffffff;dashed=0;verticalLabelPosition=bottom;verticalAlign=top;align=center;html=1;fontSize=12;fontStyle=0;aspect=fixed;shape=mxgraph.aws4.resourceIcon;resIcon=mxgraph.aws4.dynamodb;" parent="1" vertex="1">
          <mxGeometry x="770" y="470" width="58" height="58" as="geometry" />
        </mxCell>
        <mxCell id="WB0BFBL55_z6dredpq6V-36" value="CstSslsettingNextCallToSNS" style="whiteSpace=wrap;html=1;" parent="1" vertex="1">
          <mxGeometry x="500" y="470" width="190" height="20" as="geometry" />
        </mxCell>
        <mxCell id="WB0BFBL55_z6dredpq6V-42" style="edgeStyle=orthogonalEdgeStyle;rounded=0;orthogonalLoop=1;jettySize=auto;html=1;exitX=1;exitY=0.5;exitDx=0;exitDy=0;exitPerimeter=0;entryX=0;entryY=0.5;entryDx=0;entryDy=0;entryPerimeter=0;" parent="1" source="WB0BFBL55_z6dredpq6V-43" target="WB0BFBL55_z6dredpq6V-45" edge="1">
          <mxGeometry relative="1" as="geometry" />
        </mxCell>
        <mxCell id="WB0BFBL55_z6dredpq6V-43" value="" style="sketch=0;points=[[0,0,0],[0.25,0,0],[0.5,0,0],[0.75,0,0],[1,0,0],[0,1,0],[0.25,1,0],[0.5,1,0],[0.75,1,0],[1,1,0],[0,0.25,0],[0,0.5,0],[0,0.75,0],[1,0.25,0],[1,0.5,0],[1,0.75,0]];outlineConnect=0;fontColor=#232F3E;gradientColor=#FF4F8B;gradientDirection=north;fillColor=#BC1356;strokeColor=#ffffff;dashed=0;verticalLabelPosition=bottom;verticalAlign=top;align=center;html=1;fontSize=12;fontStyle=0;aspect=fixed;shape=mxgraph.aws4.resourceIcon;resIcon=mxgraph.aws4.sns;" parent="1" vertex="1">
          <mxGeometry x="410" y="560" width="78" height="78" as="geometry" />
        </mxCell>
        <mxCell id="WB0BFBL55_z6dredpq6V-44" style="edgeStyle=orthogonalEdgeStyle;rounded=0;orthogonalLoop=1;jettySize=auto;html=1;exitX=1;exitY=0.5;exitDx=0;exitDy=0;exitPerimeter=0;entryX=0;entryY=0.75;entryDx=0;entryDy=0;entryPerimeter=0;" parent="1" source="WB0BFBL55_z6dredpq6V-45" target="WB0BFBL55_z6dredpq6V-47" edge="1">
          <mxGeometry relative="1" as="geometry" />
        </mxCell>
        <mxCell id="WB0BFBL55_z6dredpq6V-53" style="edgeStyle=orthogonalEdgeStyle;rounded=0;orthogonalLoop=1;jettySize=auto;html=1;exitX=0.855;exitY=0.855;exitDx=0;exitDy=0;exitPerimeter=0;entryX=0;entryY=0.5;entryDx=0;entryDy=0;entryPerimeter=0;" parent="1" source="WB0BFBL55_z6dredpq6V-45" target="WB0BFBL55_z6dredpq6V-51" edge="1">
          <mxGeometry relative="1" as="geometry" />
        </mxCell>
        <mxCell id="WB0BFBL55_z6dredpq6V-73" style="edgeStyle=orthogonalEdgeStyle;rounded=0;orthogonalLoop=1;jettySize=auto;html=1;exitX=0.5;exitY=1;exitDx=0;exitDy=0;exitPerimeter=0;entryX=0;entryY=0.5;entryDx=0;entryDy=0;entryPerimeter=0;" parent="1" source="WB0BFBL55_z6dredpq6V-45" target="WB0BFBL55_z6dredpq6V-72" edge="1">
          <mxGeometry relative="1" as="geometry" />
        </mxCell>
        <mxCell id="WB0BFBL55_z6dredpq6V-45" value="" style="outlineConnect=0;dashed=0;verticalLabelPosition=bottom;verticalAlign=top;align=center;html=1;shape=mxgraph.aws3.lambda_function;fillColor=#F58534;gradientColor=none;" parent="1" vertex="1">
          <mxGeometry x="660" y="563" width="69" height="72" as="geometry" />
        </mxCell>
        <mxCell id="WB0BFBL55_z6dredpq6V-46" style="edgeStyle=orthogonalEdgeStyle;rounded=0;orthogonalLoop=1;jettySize=auto;html=1;exitX=0;exitY=0.25;exitDx=0;exitDy=0;exitPerimeter=0;entryX=1;entryY=0.5;entryDx=0;entryDy=0;entryPerimeter=0;" parent="1" source="WB0BFBL55_z6dredpq6V-47" target="WB0BFBL55_z6dredpq6V-45" edge="1">
          <mxGeometry relative="1" as="geometry" />
        </mxCell>
        <mxCell id="WB0BFBL55_z6dredpq6V-47" value="" style="sketch=0;points=[[0,0,0],[0.25,0,0],[0.5,0,0],[0.75,0,0],[1,0,0],[0,1,0],[0.25,1,0],[0.5,1,0],[0.75,1,0],[1,1,0],[0,0.25,0],[0,0.5,0],[0,0.75,0],[1,0.25,0],[1,0.5,0],[1,0.75,0]];outlineConnect=0;fontColor=#232F3E;gradientColor=#4D72F3;gradientDirection=north;fillColor=#3334B9;strokeColor=#ffffff;dashed=0;verticalLabelPosition=bottom;verticalAlign=top;align=center;html=1;fontSize=12;fontStyle=0;aspect=fixed;shape=mxgraph.aws4.resourceIcon;resIcon=mxgraph.aws4.dynamodb;" parent="1" vertex="1">
          <mxGeometry x="770" y="575" width="48" height="48" as="geometry" />
        </mxCell>
        <mxCell id="WB0BFBL55_z6dredpq6V-48" value="CstSslsettingCallingCsrCreateToSNS" style="whiteSpace=wrap;html=1;" parent="1" vertex="1">
          <mxGeometry x="480" y="570" width="220" height="20" as="geometry" />
        </mxCell>
        <mxCell id="WB0BFBL55_z6dredpq6V-51" value="" style="sketch=0;points=[[0,0,0],[0.25,0,0],[0.5,0,0],[0.75,0,0],[1,0,0],[0,1,0],[0.25,1,0],[0.5,1,0],[0.75,1,0],[1,1,0],[0,0.25,0],[0,0.5,0],[0,0.75,0],[1,0.25,0],[1,0.5,0],[1,0.75,0]];outlineConnect=0;fontColor=#232F3E;gradientColor=#F78E04;gradientDirection=north;fillColor=#D05C17;strokeColor=#ffffff;dashed=0;verticalLabelPosition=bottom;verticalAlign=top;align=center;html=1;fontSize=12;fontStyle=0;aspect=fixed;shape=mxgraph.aws4.resourceIcon;resIcon=mxgraph.aws4.ec2;" parent="1" vertex="1">
          <mxGeometry x="770" y="635" width="78" height="78" as="geometry" />
        </mxCell>
        <mxCell id="WB0BFBL55_z6dredpq6V-54" value="Ansible Request" style="whiteSpace=wrap;html=1;" parent="1" vertex="1">
          <mxGeometry x="770" y="693" width="100" height="20" as="geometry" />
        </mxCell>
        <mxCell id="WB0BFBL55_z6dredpq6V-55" style="edgeStyle=orthogonalEdgeStyle;rounded=0;orthogonalLoop=1;jettySize=auto;html=1;exitX=0.145;exitY=0.855;exitDx=0;exitDy=0;exitPerimeter=0;entryX=1;entryY=0.5;entryDx=0;entryDy=0;entryPerimeter=0;" parent="1" source="WB0BFBL55_z6dredpq6V-45" target="WB0BFBL55_z6dredpq6V-57" edge="1">
          <mxGeometry relative="1" as="geometry">
            <mxPoint x="670.0050000000001" y="696" as="sourcePoint" />
          </mxGeometry>
        </mxCell>
        <mxCell id="WB0BFBL55_z6dredpq6V-85" style="edgeStyle=orthogonalEdgeStyle;rounded=0;orthogonalLoop=1;jettySize=auto;html=1;exitX=1;exitY=0.75;exitDx=0;exitDy=0;exitPerimeter=0;entryX=0;entryY=0.5;entryDx=0;entryDy=0;entryPerimeter=0;" parent="1" source="WB0BFBL55_z6dredpq6V-57" target="WB0BFBL55_z6dredpq6V-82" edge="1">
          <mxGeometry relative="1" as="geometry" />
        </mxCell>
        <mxCell id="WB0BFBL55_z6dredpq6V-57" value="" style="sketch=0;points=[[0,0,0],[0.25,0,0],[0.5,0,0],[0.75,0,0],[1,0,0],[0,1,0],[0.25,1,0],[0.5,1,0],[0.75,1,0],[1,1,0],[0,0.25,0],[0,0.5,0],[0,0.75,0],[1,0.25,0],[1,0.5,0],[1,0.75,0]];outlineConnect=0;fontColor=#232F3E;gradientColor=#FF4F8B;gradientDirection=north;fillColor=#BC1356;strokeColor=#ffffff;dashed=0;verticalLabelPosition=bottom;verticalAlign=top;align=center;html=1;fontSize=12;fontStyle=0;aspect=fixed;shape=mxgraph.aws4.resourceIcon;resIcon=mxgraph.aws4.sns;" parent="1" vertex="1">
          <mxGeometry x="410" y="751.44" width="78" height="78" as="geometry" />
        </mxCell>
        <mxCell id="WB0BFBL55_z6dredpq6V-61" value="CstAnsibleEnqueueToSNS" style="whiteSpace=wrap;html=1;" parent="1" vertex="1">
          <mxGeometry x="364" y="730" width="170" height="20" as="geometry" />
        </mxCell>
        <mxCell id="WB0BFBL55_z6dredpq6V-78" style="edgeStyle=orthogonalEdgeStyle;rounded=0;orthogonalLoop=1;jettySize=auto;html=1;exitX=1;exitY=0.5;exitDx=0;exitDy=0;exitPerimeter=0;entryX=0;entryY=0.5;entryDx=0;entryDy=0;entryPerimeter=0;" parent="1" source="WB0BFBL55_z6dredpq6V-72" target="WB0BFBL55_z6dredpq6V-75" edge="1">
          <mxGeometry relative="1" as="geometry" />
        </mxCell>
        <mxCell id="WB0BFBL55_z6dredpq6V-72" value="" style="sketch=0;points=[[0,0,0],[0.25,0,0],[0.5,0,0],[0.75,0,0],[1,0,0],[0,1,0],[0.25,1,0],[0.5,1,0],[0.75,1,0],[1,1,0],[0,0.25,0],[0,0.5,0],[0,0.75,0],[1,0.25,0],[1,0.5,0],[1,0.75,0]];outlineConnect=0;fontColor=#232F3E;gradientColor=#FF4F8B;gradientDirection=north;fillColor=#BC1356;strokeColor=#ffffff;dashed=0;verticalLabelPosition=bottom;verticalAlign=top;align=center;html=1;fontSize=12;fontStyle=0;aspect=fixed;shape=mxgraph.aws4.resourceIcon;resIcon=mxgraph.aws4.sns;" parent="1" vertex="1">
          <mxGeometry x="880" y="716" width="78" height="78" as="geometry" />
        </mxCell>
        <mxCell id="WB0BFBL55_z6dredpq6V-69" value="CstSslsettingNextCallToSNS" style="whiteSpace=wrap;html=1;" parent="1" vertex="1">
          <mxGeometry x="714" y="730" width="190" height="20" as="geometry" />
        </mxCell>
        <mxCell id="WB0BFBL55_z6dredpq6V-74" style="edgeStyle=orthogonalEdgeStyle;rounded=0;orthogonalLoop=1;jettySize=auto;html=1;exitX=1;exitY=0.5;exitDx=0;exitDy=0;exitPerimeter=0;entryX=0;entryY=0.75;entryDx=0;entryDy=0;entryPerimeter=0;" parent="1" source="WB0BFBL55_z6dredpq6V-75" target="WB0BFBL55_z6dredpq6V-77" edge="1">
          <mxGeometry relative="1" as="geometry" />
        </mxCell>
        <mxCell id="WB0BFBL55_z6dredpq6V-80" style="edgeStyle=orthogonalEdgeStyle;rounded=0;orthogonalLoop=1;jettySize=auto;html=1;exitX=0.5;exitY=1;exitDx=0;exitDy=0;exitPerimeter=0;entryX=0.5;entryY=0;entryDx=0;entryDy=0;" parent="1" source="WB0BFBL55_z6dredpq6V-75" target="WB0BFBL55_z6dredpq6V-79" edge="1">
          <mxGeometry relative="1" as="geometry" />
        </mxCell>
        <mxCell id="WB0BFBL55_z6dredpq6V-75" value="" style="outlineConnect=0;dashed=0;verticalLabelPosition=bottom;verticalAlign=top;align=center;html=1;shape=mxgraph.aws3.lambda_function;fillColor=#F58534;gradientColor=none;" parent="1" vertex="1">
          <mxGeometry x="1009" y="719" width="69" height="72" as="geometry" />
        </mxCell>
        <mxCell id="WB0BFBL55_z6dredpq6V-76" style="edgeStyle=orthogonalEdgeStyle;rounded=0;orthogonalLoop=1;jettySize=auto;html=1;exitX=0;exitY=0.25;exitDx=0;exitDy=0;exitPerimeter=0;entryX=1;entryY=0.5;entryDx=0;entryDy=0;entryPerimeter=0;" parent="1" source="WB0BFBL55_z6dredpq6V-77" target="WB0BFBL55_z6dredpq6V-75" edge="1">
          <mxGeometry relative="1" as="geometry" />
        </mxCell>
        <mxCell id="WB0BFBL55_z6dredpq6V-77" value="" style="sketch=0;points=[[0,0,0],[0.25,0,0],[0.5,0,0],[0.75,0,0],[1,0,0],[0,1,0],[0.25,1,0],[0.5,1,0],[0.75,1,0],[1,1,0],[0,0.25,0],[0,0.5,0],[0,0.75,0],[1,0.25,0],[1,0.5,0],[1,0.75,0]];outlineConnect=0;fontColor=#232F3E;gradientColor=#4D72F3;gradientDirection=north;fillColor=#3334B9;strokeColor=#ffffff;dashed=0;verticalLabelPosition=bottom;verticalAlign=top;align=center;html=1;fontSize=12;fontStyle=0;aspect=fixed;shape=mxgraph.aws4.resourceIcon;resIcon=mxgraph.aws4.dynamodb;" parent="1" vertex="1">
          <mxGeometry x="1114.5" y="735" width="48" height="48" as="geometry" />
        </mxCell>
        <mxCell id="WB0BFBL55_z6dredpq6V-79" value="End" style="whiteSpace=wrap;html=1;" parent="1" vertex="1">
          <mxGeometry x="988" y="834.56" width="111" height="40" as="geometry" />
        </mxCell>
        <mxCell id="WB0BFBL55_z6dredpq6V-81" style="edgeStyle=orthogonalEdgeStyle;rounded=0;orthogonalLoop=1;jettySize=auto;html=1;exitX=1;exitY=0.5;exitDx=0;exitDy=0;exitPerimeter=0;entryX=0;entryY=0.75;entryDx=0;entryDy=0;entryPerimeter=0;" parent="1" source="WB0BFBL55_z6dredpq6V-82" target="WB0BFBL55_z6dredpq6V-84" edge="1">
          <mxGeometry relative="1" as="geometry" />
        </mxCell>
        <mxCell id="WB0BFBL55_z6dredpq6V-91" style="edgeStyle=orthogonalEdgeStyle;rounded=0;orthogonalLoop=1;jettySize=auto;html=1;exitX=0;exitY=0.5;exitDx=0;exitDy=0;exitPerimeter=0;entryX=1;entryY=0.5;entryDx=0;entryDy=0;entryPerimeter=0;" parent="1" source="WB0BFBL55_z6dredpq6V-82" target="WB0BFBL55_z6dredpq6V-86" edge="1">
          <mxGeometry relative="1" as="geometry" />
        </mxCell>
        <mxCell id="WB0BFBL55_z6dredpq6V-82" value="" style="outlineConnect=0;dashed=0;verticalLabelPosition=bottom;verticalAlign=top;align=center;html=1;shape=mxgraph.aws3.lambda_function;fillColor=#F58534;gradientColor=none;" parent="1" vertex="1">
          <mxGeometry x="660" y="770" width="69" height="72" as="geometry" />
        </mxCell>
        <mxCell id="WB0BFBL55_z6dredpq6V-83" style="edgeStyle=orthogonalEdgeStyle;rounded=0;orthogonalLoop=1;jettySize=auto;html=1;exitX=0;exitY=0.25;exitDx=0;exitDy=0;exitPerimeter=0;entryX=1;entryY=0.5;entryDx=0;entryDy=0;entryPerimeter=0;" parent="1" source="WB0BFBL55_z6dredpq6V-84" target="WB0BFBL55_z6dredpq6V-82" edge="1">
          <mxGeometry relative="1" as="geometry" />
        </mxCell>
        <mxCell id="WB0BFBL55_z6dredpq6V-84" value="" style="sketch=0;points=[[0,0,0],[0.25,0,0],[0.5,0,0],[0.75,0,0],[1,0,0],[0,1,0],[0.25,1,0],[0.5,1,0],[0.75,1,0],[1,1,0],[0,0.25,0],[0,0.5,0],[0,0.75,0],[1,0.25,0],[1,0.5,0],[1,0.75,0]];outlineConnect=0;fontColor=#232F3E;gradientColor=#4D72F3;gradientDirection=north;fillColor=#3334B9;strokeColor=#ffffff;dashed=0;verticalLabelPosition=bottom;verticalAlign=top;align=center;html=1;fontSize=12;fontStyle=0;aspect=fixed;shape=mxgraph.aws4.resourceIcon;resIcon=mxgraph.aws4.dynamodb;" parent="1" vertex="1">
          <mxGeometry x="770" y="782" width="48" height="48" as="geometry" />
        </mxCell>
        <mxCell id="WB0BFBL55_z6dredpq6V-92" style="edgeStyle=orthogonalEdgeStyle;rounded=0;orthogonalLoop=1;jettySize=auto;html=1;exitX=1;exitY=0.5;exitDx=0;exitDy=0;exitPerimeter=0;" parent="1" source="WB0BFBL55_z6dredpq6V-86" target="WB0BFBL55_z6dredpq6V-88" edge="1">
          <mxGeometry relative="1" as="geometry" />
        </mxCell>
        <mxCell id="GhPBJf--KSS4lUjMVX7k-2" style="edgeStyle=orthogonalEdgeStyle;rounded=0;orthogonalLoop=1;jettySize=auto;html=1;exitX=0;exitY=0.5;exitDx=0;exitDy=0;exitPerimeter=0;entryX=1;entryY=0.5;entryDx=0;entryDy=0;entryPerimeter=0;" edge="1" parent="1" source="WB0BFBL55_z6dredpq6V-86" target="GhPBJf--KSS4lUjMVX7k-1">
          <mxGeometry relative="1" as="geometry" />
        </mxCell>
        <mxCell id="WB0BFBL55_z6dredpq6V-86" value="" style="sketch=0;points=[[0,0,0],[0.25,0,0],[0.5,0,0],[0.75,0,0],[1,0,0],[0,1,0],[0.25,1,0],[0.5,1,0],[0.75,1,0],[1,1,0],[0,0.25,0],[0,0.5,0],[0,0.75,0],[1,0.25,0],[1,0.5,0],[1,0.75,0]];outlineConnect=0;fontColor=#232F3E;gradientColor=#FF4F8B;gradientDirection=north;fillColor=#BC1356;strokeColor=#ffffff;dashed=0;verticalLabelPosition=bottom;verticalAlign=top;align=center;html=1;fontSize=12;fontStyle=0;aspect=fixed;shape=mxgraph.aws4.resourceIcon;resIcon=mxgraph.aws4.sns;" parent="1" vertex="1">
          <mxGeometry x="410" y="865.56" width="78" height="78" as="geometry" />
        </mxCell>
        <mxCell id="WB0BFBL55_z6dredpq6V-87" style="edgeStyle=orthogonalEdgeStyle;rounded=0;orthogonalLoop=1;jettySize=auto;html=1;exitX=1;exitY=0.5;exitDx=0;exitDy=0;exitPerimeter=0;entryX=0;entryY=0.75;entryDx=0;entryDy=0;entryPerimeter=0;" parent="1" source="WB0BFBL55_z6dredpq6V-88" target="WB0BFBL55_z6dredpq6V-90" edge="1">
          <mxGeometry relative="1" as="geometry" />
        </mxCell>
        <mxCell id="WB0BFBL55_z6dredpq6V-95" style="edgeStyle=orthogonalEdgeStyle;rounded=0;orthogonalLoop=1;jettySize=auto;html=1;exitX=0.145;exitY=0.855;exitDx=0;exitDy=0;exitPerimeter=0;entryX=1;entryY=0.5;entryDx=0;entryDy=0;entryPerimeter=0;" parent="1" source="WB0BFBL55_z6dredpq6V-88" target="WB0BFBL55_z6dredpq6V-94" edge="1">
          <mxGeometry relative="1" as="geometry" />
        </mxCell>
        <mxCell id="WB0BFBL55_z6dredpq6V-88" value="" style="outlineConnect=0;dashed=0;verticalLabelPosition=bottom;verticalAlign=top;align=center;html=1;shape=mxgraph.aws3.lambda_function;fillColor=#F58534;gradientColor=none;" parent="1" vertex="1">
          <mxGeometry x="660" y="868.56" width="69" height="72" as="geometry" />
        </mxCell>
        <mxCell id="WB0BFBL55_z6dredpq6V-89" style="edgeStyle=orthogonalEdgeStyle;rounded=0;orthogonalLoop=1;jettySize=auto;html=1;exitX=0;exitY=0.25;exitDx=0;exitDy=0;exitPerimeter=0;entryX=1;entryY=0.5;entryDx=0;entryDy=0;entryPerimeter=0;" parent="1" source="WB0BFBL55_z6dredpq6V-90" target="WB0BFBL55_z6dredpq6V-88" edge="1">
          <mxGeometry relative="1" as="geometry" />
        </mxCell>
        <mxCell id="WB0BFBL55_z6dredpq6V-90" value="" style="sketch=0;points=[[0,0,0],[0.25,0,0],[0.5,0,0],[0.75,0,0],[1,0,0],[0,1,0],[0.25,1,0],[0.5,1,0],[0.75,1,0],[1,1,0],[0,0.25,0],[0,0.5,0],[0,0.75,0],[1,0.25,0],[1,0.5,0],[1,0.75,0]];outlineConnect=0;fontColor=#232F3E;gradientColor=#4D72F3;gradientDirection=north;fillColor=#3334B9;strokeColor=#ffffff;dashed=0;verticalLabelPosition=bottom;verticalAlign=top;align=center;html=1;fontSize=12;fontStyle=0;aspect=fixed;shape=mxgraph.aws4.resourceIcon;resIcon=mxgraph.aws4.dynamodb;" parent="1" vertex="1">
          <mxGeometry x="770" y="880.56" width="48" height="48" as="geometry" />
        </mxCell>
        <mxCell id="WB0BFBL55_z6dredpq6V-93" value="CstAnsibleQueueExecuteToSNS" style="whiteSpace=wrap;html=1;" parent="1" vertex="1">
          <mxGeometry x="420" y="868.56" width="200" height="20" as="geometry" />
        </mxCell>
        <mxCell id="WB0BFBL55_z6dredpq6V-94" value="" style="sketch=0;points=[[0,0,0],[0.25,0,0],[0.5,0,0],[0.75,0,0],[1,0,0],[0,1,0],[0.25,1,0],[0.5,1,0],[0.75,1,0],[1,1,0],[0,0.25,0],[0,0.5,0],[0,0.75,0],[1,0.25,0],[1,0.5,0],[1,0.75,0]];outlineConnect=0;fontColor=#232F3E;gradientColor=#FF4F8B;gradientDirection=north;fillColor=#BC1356;strokeColor=#ffffff;dashed=0;verticalLabelPosition=bottom;verticalAlign=top;align=center;html=1;fontSize=12;fontStyle=0;aspect=fixed;shape=mxgraph.aws4.resourceIcon;resIcon=mxgraph.aws4.sqs;" parent="1" vertex="1">
          <mxGeometry x="410" y="1000" width="78" height="78" as="geometry" />
        </mxCell>
        <mxCell id="WB0BFBL55_z6dredpq6V-96" value="cstAnsibleCallToSQS" style="whiteSpace=wrap;html=1;" parent="1" vertex="1">
          <mxGeometry x="500" y="1000" width="200" height="20" as="geometry" />
        </mxCell>
        <mxCell id="GhPBJf--KSS4lUjMVX7k-3" style="edgeStyle=orthogonalEdgeStyle;rounded=0;orthogonalLoop=1;jettySize=auto;html=1;exitX=1;exitY=0.25;exitDx=0;exitDy=0;exitPerimeter=0;entryX=0;entryY=0.25;entryDx=0;entryDy=0;entryPerimeter=0;" edge="1" parent="1" source="GhPBJf--KSS4lUjMVX7k-1" target="WB0BFBL55_z6dredpq6V-86">
          <mxGeometry relative="1" as="geometry" />
        </mxCell>
        <mxCell id="GhPBJf--KSS4lUjMVX7k-1" value="" style="sketch=0;points=[[0,0,0],[0.25,0,0],[0.5,0,0],[0.75,0,0],[1,0,0],[0,1,0],[0.25,1,0],[0.5,1,0],[0.75,1,0],[1,1,0],[0,0.25,0],[0,0.5,0],[0,0.75,0],[1,0.25,0],[1,0.5,0],[1,0.75,0]];outlineConnect=0;fontColor=#232F3E;gradientColor=#F78E04;gradientDirection=north;fillColor=#D05C17;strokeColor=#ffffff;dashed=0;verticalLabelPosition=bottom;verticalAlign=top;align=center;html=1;fontSize=12;fontStyle=0;aspect=fixed;shape=mxgraph.aws4.resourceIcon;resIcon=mxgraph.aws4.ec2;" vertex="1" parent="1">
          <mxGeometry x="90" y="940" width="138" height="138" as="geometry" />
        </mxCell>
      </root>
    </mxGraphModel>
  </diagram>
</mxfile>
